<mxfile host="app.diagrams.net" modified="2020-09-30T03:26:52.644Z" agent="5.0 (Windows NT 10.0; Win64; x64) AppleWebKit/537.36 (KHTML, like Gecko) Chrome/85.0.4183.121 Safari/537.36" etag="-gCIbEG7nGwxhK6MMSLG" version="13.7.6" type="github" pages="2">
  <diagram id="lwbvN2cVMPfnyAF2uuGC" name="多线程基本操作">
    <mxGraphModel dx="2036" dy="573" grid="1" gridSize="10" guides="1" tooltips="1" connect="1" arrows="1" fold="1" page="1" pageScale="1" pageWidth="827" pageHeight="1169" math="0" shadow="0">
      <root>
        <mxCell id="0" />
        <mxCell id="1" parent="0" />
        <mxCell id="K-BzcDrrByR61mDCrtsX-3" value="互斥性&#xa;可见性" style="shape=mxgraph.mockup.containers.marginRect;rectMarginTop=10;strokeColor=#666666;strokeWidth=1;dashed=0;rounded=1;arcSize=5;recursiveResize=0;fontSize=13;" parent="1" vertex="1">
          <mxGeometry x="100" y="240" width="180" height="90" as="geometry" />
        </mxCell>
        <mxCell id="K-BzcDrrByR61mDCrtsX-4" value="特性" style="shape=rect;strokeColor=none;fillColor=#008cff;strokeWidth=1;dashed=0;rounded=1;arcSize=20;fontColor=#ffffff;fontSize=17;spacing=2;spacingTop=-2;align=left;autosize=1;spacingLeft=4;resizeWidth=0;resizeHeight=0;perimeter=none;" parent="K-BzcDrrByR61mDCrtsX-3" vertex="1">
          <mxGeometry x="5" width="60" height="30" as="geometry" />
        </mxCell>
        <mxCell id="K-BzcDrrByR61mDCrtsX-5" value="1.普通方法：锁当前对象&#xa;2.静态方法：锁当前的class对昂&#xa;3.代码块：锁括号内的对象" style="shape=mxgraph.mockup.containers.marginRect;rectMarginTop=10;strokeColor=#666666;strokeWidth=1;dashed=0;rounded=1;arcSize=5;recursiveResize=0;fontSize=13;" parent="1" vertex="1">
          <mxGeometry x="370" y="220" width="230" height="130" as="geometry" />
        </mxCell>
        <mxCell id="K-BzcDrrByR61mDCrtsX-6" value="具体实现" style="shape=rect;strokeColor=none;fillColor=#008cff;strokeWidth=1;dashed=0;rounded=1;arcSize=20;fontColor=#ffffff;fontSize=17;spacing=2;spacingTop=-2;align=left;autosize=1;spacingLeft=4;resizeWidth=0;resizeHeight=0;perimeter=none;" parent="K-BzcDrrByR61mDCrtsX-5" vertex="1">
          <mxGeometry x="5" width="90" height="30" as="geometry" />
        </mxCell>
        <mxCell id="K-BzcDrrByR61mDCrtsX-8" value="synchronized 的原理" style="swimlane;fontSize=13;" parent="1" vertex="1">
          <mxGeometry x="-66" y="490" width="920" height="270" as="geometry" />
        </mxCell>
        <mxCell id="K-BzcDrrByR61mDCrtsX-9" value="&lt;div style=&quot;text-align: left ; color: rgb(94 , 94 , 94) ; font-family: &amp;#34;pingfang sc&amp;#34; , &amp;#34;microsoft yahei&amp;#34; , &amp;#34;helvetica neue&amp;#34; , &amp;#34;helvetica&amp;#34; , &amp;#34;arial&amp;#34; , sans-serif ; background-color: rgb(255 , 255 , 255)&quot;&gt;JVM 基于进入和推出Monitor对象来实现方法和同步代码块，但两者的实现细节不同。&lt;br&gt;&lt;/div&gt;&lt;div style=&quot;color: rgb(102 , 102 , 102) ; font-size: 17px ; text-align: left&quot;&gt;&lt;div style=&quot;color: rgb(94 , 94 , 94) ; font-family: &amp;#34;pingfang sc&amp;#34; , &amp;#34;microsoft yahei&amp;#34; , &amp;#34;helvetica neue&amp;#34; , &amp;#34;helvetica&amp;#34; , &amp;#34;arial&amp;#34; , sans-serif ; font-size: 13px ; background-color: rgb(255 , 255 , 255)&quot;&gt;&amp;nbsp;&lt;/div&gt;&lt;div style=&quot;color: rgb(94 , 94 , 94) ; font-family: &amp;#34;pingfang sc&amp;#34; , &amp;#34;microsoft yahei&amp;#34; , &amp;#34;helvetica neue&amp;#34; , &amp;#34;helvetica&amp;#34; , &amp;#34;arial&amp;#34; , sans-serif ; font-size: 13px ; background-color: rgb(255 , 255 , 255)&quot;&gt;同步代码块：使用&lt;b&gt;monitorenter 和&amp;nbsp; monitorexit 指令&lt;/b&gt;实现。&lt;/div&gt;&lt;div style=&quot;color: rgb(94 , 94 , 94) ; font-family: &amp;#34;pingfang sc&amp;#34; , &amp;#34;microsoft yahei&amp;#34; , &amp;#34;helvetica neue&amp;#34; , &amp;#34;helvetica&amp;#34; , &amp;#34;arial&amp;#34; , sans-serif ; font-size: 13px ; background-color: rgb(255 , 255 , 255)&quot;&gt;synchronize修饰的方法并没有 monitorenter 和 monitorexit&amp;nbsp; 指令 ，&lt;/div&gt;&lt;div style=&quot;color: rgb(94 , 94 , 94) ; font-family: &amp;#34;pingfang sc&amp;#34; , &amp;#34;microsoft yahei&amp;#34; , &amp;#34;helvetica neue&amp;#34; , &amp;#34;helvetica&amp;#34; , &amp;#34;arial&amp;#34; , sans-serif ; font-size: 13px ; background-color: rgb(255 , 255 , 255)&quot;&gt;而取代之的是 &lt;b&gt;ACC_SYNCHRONIZED标识&lt;/b&gt;，该标志指明了该方法是一个同步方法，从而执行相应的同步调用。&lt;/div&gt;&lt;div style=&quot;color: rgb(94 , 94 , 94) ; font-family: &amp;#34;pingfang sc&amp;#34; , &amp;#34;microsoft yahei&amp;#34; , &amp;#34;helvetica neue&amp;#34; , &amp;#34;helvetica&amp;#34; , &amp;#34;arial&amp;#34; , sans-serif ; font-size: 13px ; background-color: rgb(255 , 255 , 255)&quot;&gt;&amp;nbsp;&lt;/div&gt;&lt;div style=&quot;color: rgb(94 , 94 , 94) ; font-family: &amp;#34;pingfang sc&amp;#34; , &amp;#34;microsoft yahei&amp;#34; , &amp;#34;helvetica neue&amp;#34; , &amp;#34;helvetica&amp;#34; , &amp;#34;arial&amp;#34; , sans-serif ; font-size: 13px ; background-color: rgb(255 , 255 , 255)&quot;&gt;&lt;b&gt;Monitorenter 指令实现编译后到同步代码块开始的位置，而 monitorexit 是插入在方法结束出和异常处，&lt;/b&gt;&lt;/div&gt;&lt;div style=&quot;color: rgb(94 , 94 , 94) ; font-family: &amp;#34;pingfang sc&amp;#34; , &amp;#34;microsoft yahei&amp;#34; , &amp;#34;helvetica neue&amp;#34; , &amp;#34;helvetica&amp;#34; , &amp;#34;arial&amp;#34; , sans-serif ; font-size: 13px ; background-color: rgb(255 , 255 , 255)&quot;&gt;&lt;b&gt;JVM要保证每个monitorter 必须要有一个与之对应的monitorexit 。&lt;/b&gt;&lt;/div&gt;&lt;div style=&quot;color: rgb(94 , 94 , 94) ; font-family: &amp;#34;pingfang sc&amp;#34; , &amp;#34;microsoft yahei&amp;#34; , &amp;#34;helvetica neue&amp;#34; , &amp;#34;helvetica&amp;#34; , &amp;#34;arial&amp;#34; , sans-serif ; font-size: 13px ; background-color: rgb(255 , 255 , 255)&quot;&gt;任何一个对象都可以和一个monitor 相关联，且当一个执行 monitorenter 指令的时候，&lt;/div&gt;&lt;div style=&quot;color: rgb(94 , 94 , 94) ; font-family: &amp;#34;pingfang sc&amp;#34; , &amp;#34;microsoft yahei&amp;#34; , &amp;#34;helvetica neue&amp;#34; , &amp;#34;helvetica&amp;#34; , &amp;#34;arial&amp;#34; , sans-serif ; font-size: 13px ; background-color: rgb(255 , 255 , 255)&quot;&gt;会尝试获取synchronized 圆括号中对象中相关联的 monitor的所有权，即尝试获取这个对象的锁（这里的是重量级锁，为没有后面提到的偏向锁和轻量级锁）&lt;/div&gt;&lt;/div&gt;" style="text;html=1;align=center;verticalAlign=middle;resizable=0;points=[];autosize=1;fontSize=13;" parent="K-BzcDrrByR61mDCrtsX-8" vertex="1">
          <mxGeometry y="70" width="920" height="170" as="geometry" />
        </mxCell>
        <mxCell id="Wj9j_xX5FXf46OD89LJR-1" value="java对象头" style="swimlane;" vertex="1" parent="1">
          <mxGeometry x="110" y="870" width="870" height="820" as="geometry" />
        </mxCell>
        <mxCell id="Wj9j_xX5FXf46OD89LJR-6" style="edgeStyle=orthogonalEdgeStyle;rounded=0;orthogonalLoop=1;jettySize=auto;html=1;curved=1;" edge="1" parent="Wj9j_xX5FXf46OD89LJR-1" source="Wj9j_xX5FXf46OD89LJR-2" target="Wj9j_xX5FXf46OD89LJR-5">
          <mxGeometry relative="1" as="geometry">
            <Array as="points">
              <mxPoint x="560" y="80" />
            </Array>
          </mxGeometry>
        </mxCell>
        <mxCell id="Wj9j_xX5FXf46OD89LJR-2" value="&lt;table style=&quot;border: 1px solid rgb(223 , 223 , 223) ; border-collapse: collapse ; word-break: break-word ; color: rgb(94 , 94 , 94) ; font-family: &amp;#34;pingfang sc&amp;#34; , &amp;#34;microsoft yahei&amp;#34; , &amp;#34;helvetica neue&amp;#34; , &amp;#34;helvetica&amp;#34; , &amp;#34;arial&amp;#34; , sans-serif ; font-size: 13px ; text-align: justify ; background-color: rgb(255 , 255 , 255)&quot;&gt;&lt;thead&gt;&lt;tr&gt;&lt;th style=&quot;background-color: rgb(250 , 250 , 250) ; border: 1px solid rgb(192 , 192 , 192) ; border-collapse: collapse ; padding: 8px 14px ; min-width: 50px&quot;&gt;长度&lt;/th&gt;&lt;th style=&quot;background-color: rgb(250 , 250 , 250) ; border: 1px solid rgb(192 , 192 , 192) ; border-collapse: collapse ; padding: 8px 14px ; min-width: 50px&quot;&gt;内容&lt;/th&gt;&lt;th style=&quot;background-color: rgb(250 , 250 , 250) ; border: 1px solid rgb(192 , 192 , 192) ; border-collapse: collapse ; padding: 8px 14px ; min-width: 50px&quot;&gt;说明&lt;/th&gt;&lt;/tr&gt;&lt;/thead&gt;&lt;tbody&gt;&lt;tr&gt;&lt;td style=&quot;font-size: 12px ; line-height: 18px ; border: 1px solid rgb(192 , 192 , 192) ; border-collapse: collapse ; padding: 8px 14px ; min-width: 50px&quot;&gt;32/64bit&lt;/td&gt;&lt;td style=&quot;font-size: 12px ; line-height: 18px ; border: 1px solid rgb(192 , 192 , 192) ; border-collapse: collapse ; padding: 8px 14px ; min-width: 50px&quot;&gt;MarkWord&lt;/td&gt;&lt;td style=&quot;font-size: 12px ; line-height: 18px ; border: 1px solid rgb(192 , 192 , 192) ; border-collapse: collapse ; padding: 8px 14px ; min-width: 50px&quot;&gt;存储对象的hashCode，GC分代和锁信息&lt;/td&gt;&lt;/tr&gt;&lt;tr&gt;&lt;td style=&quot;font-size: 12px ; line-height: 18px ; border: 1px solid rgb(192 , 192 , 192) ; border-collapse: collapse ; padding: 8px 14px ; min-width: 50px&quot;&gt;32/64bit&lt;/td&gt;&lt;td style=&quot;font-size: 12px ; line-height: 18px ; border: 1px solid rgb(192 , 192 , 192) ; border-collapse: collapse ; padding: 8px 14px ; min-width: 50px&quot;&gt;Klass Point&lt;/td&gt;&lt;td style=&quot;font-size: 12px ; line-height: 18px ; border: 1px solid rgb(192 , 192 , 192) ; border-collapse: collapse ; padding: 8px 14px ; min-width: 50px&quot;&gt;存储到类元数据的指针&lt;/td&gt;&lt;/tr&gt;&lt;tr&gt;&lt;td style=&quot;font-size: 12px ; line-height: 18px ; border: 1px solid rgb(192 , 192 , 192) ; border-collapse: collapse ; padding: 8px 14px ; min-width: 50px&quot;&gt;32/64bit&lt;/td&gt;&lt;td style=&quot;font-size: 12px ; line-height: 18px ; border: 1px solid rgb(192 , 192 , 192) ; border-collapse: collapse ; padding: 8px 14px ; min-width: 50px&quot;&gt;Array Length&lt;/td&gt;&lt;td style=&quot;font-size: 12px ; line-height: 18px ; border: 1px solid rgb(192 , 192 , 192) ; border-collapse: collapse ; padding: 8px 14px ; min-width: 50px&quot;&gt;这个只针对数组对象而言，存储数组的长度&lt;/td&gt;&lt;/tr&gt;&lt;/tbody&gt;&lt;/table&gt;" style="text;html=1;align=center;verticalAlign=middle;resizable=0;points=[];autosize=1;" vertex="1" parent="Wj9j_xX5FXf46OD89LJR-1">
          <mxGeometry x="50" y="40" width="460" height="140" as="geometry" />
        </mxCell>
        <mxCell id="Wj9j_xX5FXf46OD89LJR-5" value="MarkWord" style="swimlane;" vertex="1" parent="Wj9j_xX5FXf46OD89LJR-1">
          <mxGeometry x="20" y="250" width="830" height="550" as="geometry" />
        </mxCell>
        <mxCell id="Wj9j_xX5FXf46OD89LJR-4" value="&lt;table style=&quot;border: 1px solid rgb(223 , 223 , 223) ; border-collapse: collapse ; word-break: break-word ; color: rgb(94 , 94 , 94) ; font-family: &amp;#34;pingfang sc&amp;#34; , &amp;#34;microsoft yahei&amp;#34; , &amp;#34;helvetica neue&amp;#34; , &amp;#34;helvetica&amp;#34; , &amp;#34;arial&amp;#34; , sans-serif ; font-size: 13px ; text-align: justify ; background-color: rgb(255 , 255 , 255) ; height: 51px ; width: 548px&quot;&gt;&lt;thead&gt;&lt;tr&gt;&lt;th style=&quot;background-color: rgb(250 , 250 , 250) ; border: 1px solid rgb(192 , 192 , 192) ; border-collapse: collapse ; padding: 8px 14px ; min-width: 50px&quot;&gt;锁状态&lt;/th&gt;&lt;th style=&quot;background-color: rgb(250 , 250 , 250) ; border: 1px solid rgb(192 , 192 , 192) ; border-collapse: collapse ; padding: 8px 14px ; min-width: 50px&quot;&gt;25bit&lt;/th&gt;&lt;th style=&quot;background-color: rgb(250 , 250 , 250) ; border: 1px solid rgb(192 , 192 , 192) ; border-collapse: collapse ; padding: 8px 14px ; min-width: 50px&quot;&gt;4bit&lt;/th&gt;&lt;th style=&quot;background-color: rgb(250 , 250 , 250) ; border: 1px solid rgb(192 , 192 , 192) ; border-collapse: collapse ; padding: 8px 14px ; min-width: 50px&quot;&gt;1bit是否偏向锁&lt;/th&gt;&lt;th style=&quot;background-color: rgb(250 , 250 , 250) ; border: 1px solid rgb(192 , 192 , 192) ; border-collapse: collapse ; padding: 8px 14px ; min-width: 50px&quot;&gt;2bit锁标志&lt;/th&gt;&lt;/tr&gt;&lt;/thead&gt;&lt;tbody&gt;&lt;tr&gt;&lt;td style=&quot;font-size: 12px ; line-height: 18px ; border: 1px solid rgb(192 , 192 , 192) ; border-collapse: collapse ; padding: 8px 14px ; min-width: 50px&quot;&gt;无锁状态&lt;/td&gt;&lt;td style=&quot;font-size: 12px ; line-height: 18px ; border: 1px solid rgb(192 , 192 , 192) ; border-collapse: collapse ; padding: 8px 14px ; min-width: 50px&quot;&gt;对象的hashCode&lt;/td&gt;&lt;td style=&quot;font-size: 12px ; line-height: 18px ; border: 1px solid rgb(192 , 192 , 192) ; border-collapse: collapse ; padding: 8px 14px ; min-width: 50px&quot;&gt;对象分代年龄&lt;/td&gt;&lt;td style=&quot;font-size: 12px ; line-height: 18px ; border: 1px solid rgb(192 , 192 , 192) ; border-collapse: collapse ; padding: 8px 14px ; min-width: 50px&quot;&gt;0&lt;/td&gt;&lt;td style=&quot;font-size: 12px ; line-height: 18px ; border: 1px solid rgb(192 , 192 , 192) ; border-collapse: collapse ; padding: 8px 14px ; min-width: 50px&quot;&gt;01&lt;/td&gt;&lt;/tr&gt;&lt;/tbody&gt;&lt;/table&gt;" style="text;html=1;align=center;verticalAlign=middle;resizable=0;points=[];autosize=1;" vertex="1" parent="Wj9j_xX5FXf46OD89LJR-5">
          <mxGeometry x="50" y="60" width="560" height="70" as="geometry" />
        </mxCell>
        <mxCell id="Wj9j_xX5FXf46OD89LJR-7" value="&lt;img src=&quot;https://img2018.cnblogs.com/i-beta/1628307/202001/1628307-20200105153848315-1839616740.png&quot;&gt;" style="text;html=1;align=center;verticalAlign=middle;resizable=0;points=[];autosize=1;" vertex="1" parent="Wj9j_xX5FXf46OD89LJR-5">
          <mxGeometry x="10" y="160" width="720" height="300" as="geometry" />
        </mxCell>
        <mxCell id="Wj9j_xX5FXf46OD89LJR-8" value="&lt;span style=&quot;color: rgb(94 , 94 , 94) ; font-family: &amp;#34;pingfang sc&amp;#34; , &amp;#34;microsoft yahei&amp;#34; , &amp;#34;helvetica neue&amp;#34; , &amp;#34;helvetica&amp;#34; , &amp;#34;arial&amp;#34; , sans-serif ; font-size: 13px ; text-align: justify ; background-color: rgb(255 , 255 , 255)&quot;&gt;Mark Word的大小在32位虚拟机中占32个字节，在64位的虚拟机中占64个字节&lt;/span&gt;" style="text;html=1;align=center;verticalAlign=middle;resizable=0;points=[];autosize=1;" vertex="1" parent="Wj9j_xX5FXf46OD89LJR-1">
          <mxGeometry x="380" y="180" width="470" height="20" as="geometry" />
        </mxCell>
        <mxCell id="Wj9j_xX5FXf46OD89LJR-9" value="monitor是有ObjectMonitor实现的" style="swimlane;startSize=23;" vertex="1" parent="1">
          <mxGeometry x="190" y="1740" width="745" height="570" as="geometry" />
        </mxCell>
        <mxCell id="Wj9j_xX5FXf46OD89LJR-10" value="https://www.jianshu.com/p/3eda3d375e7e" style="text;html=1;align=center;verticalAlign=middle;resizable=0;points=[];autosize=1;" vertex="1" parent="Wj9j_xX5FXf46OD89LJR-9">
          <mxGeometry y="540" width="240" height="20" as="geometry" />
        </mxCell>
        <mxCell id="Wj9j_xX5FXf46OD89LJR-11" value="&lt;span style=&quot;color: rgb(64 , 64 , 64) ; font-family: , &amp;#34;blinkmacsystemfont&amp;#34; , &amp;#34;apple color emoji&amp;#34; , &amp;#34;segoe ui emoji&amp;#34; , &amp;#34;segoe ui symbol&amp;#34; , &amp;#34;segoe ui&amp;#34; , &amp;#34;pingfang sc&amp;#34; , &amp;#34;hiragino sans gb&amp;#34; , &amp;#34;microsoft yahei&amp;#34; , &amp;#34;helvetica neue&amp;#34; , &amp;#34;helvetica&amp;#34; , &amp;#34;arial&amp;#34; , sans-serif ; font-size: 16px ; background-color: rgb(255 , 255 , 255)&quot;&gt;ObjectMonitor中有两个队列，_WaitSet和_EntryList&lt;/span&gt;" style="text;html=1;align=center;verticalAlign=middle;resizable=0;points=[];autosize=1;" vertex="1" parent="Wj9j_xX5FXf46OD89LJR-9">
          <mxGeometry y="50" width="380" height="20" as="geometry" />
        </mxCell>
        <mxCell id="Wj9j_xX5FXf46OD89LJR-20" value="" style="shape=image;verticalLabelPosition=bottom;labelBackgroundColor=#ffffff;verticalAlign=top;aspect=fixed;imageAspect=0;image=data:image/png,iVBORw0KGgoAAAANSUhEUgAAAggAAAEcCAYAAACiU0xzAAAgAElEQVR4XuzdB7h0V1U+8INdLIgKIiIoiCAKAqJ0Qu8ggRSRmkBCDYQQk0ASQAihhJKQkAah99AJ0msQglRBBMQCioAoCCrY5f/8tv/3c+cwc+fMzJl7Z76753nuc7/vzjn77LP23mu9611rr32R73znO9/p2qdJoEmgSaBJoEmgSaBJoJLARRpAaPOhSaBJoEmgSaBJoEmgL4EGENqcaBJoEmgSaBJoEmgS+C4JNIDQJkWTQJNAk0CTQJNAk0ADCG0ONAk0CTQJNAk0CTQJzJZAYxBmy6hd0STQJNAk0CTQJLDrJNAAwq4b8vbCTQJNAk0CTQJNArMl0ADCbBm1K5oEmgSaBJoEmgR2nQQaQNh1Q95euEmgSaBJoEmgSWC2BBpAmC2jdkWTQJNAk0CTQJPArpNAAwi7bsjbCzcJNAk0CTQJNAnMlkADCLNl1K5oEmgSaBJoEmgS2HUSaABh1w15e+EmgSaBJoEmgSaB2RJoAGG2jNoVTQJrL4H//u//7r7ne76n9PMiF7lI5ww2P/72P//zP+Xf+S7XLfpS2vIMH8/1b23+13/9V/d93/d9F3r2os9o9zUJNAnsvAQaQNj5MWg9aBKYWwKf+tSnun//938vxplR9u8f+qEfKv9mqP38xE/8RPcP//AP3Qc+8IHuyle+cneLW9xi7udMugFA+Nd//dfS9t///d8XAPLtb3+7u+hFL9pd8pKX7H7mZ36m+8Ef/ME9gGSUh7ZGmgSaBLZdAg0gbLvI2wObBJaTwL/92791hx9+eHexi12s+63f+q3uE5/4RPfe9763gICb3vSm3de//vXyt0td6lLFUL/kJS/pbne723WPf/zji3cf73/RXgAHnvfud7+79OEXf/EXu+///u/v/vIv/7L7p3/6p26fffbprnvd6xbA4lnLPm/Rfrb7mgSaBJaTQAMIy8mv3d0ksK0SYOD/+Z//uXv1q1/dXfOa1+x+/ud/vhjrF77whQUs3Ote9yoe/V//9V8X7/6b3/xmd84553TXvva1uxNPPLEYa2EB1yTUENDwvd/7veXv//mf/1kM/qRQhHvf+c53ds997nNLm3e84x0LSNDut771rdKPz3/+890973nP0h9t+PF92vU8z8nz/N+/+5+ERhLC8D1mJG363k8ASB1iyXv8wA/8QAMo2zpD28P2Jgk0gLA3jWZ7l10hAR78l770pe7nfu7nCkPAk3/2s5/dXf/61+/ue9/77jHGgMQnP/nJ7qSTTuquda1rdQ9/+MOLh89QX+ISlyj3/vAP/3D5/z/+4z92X/va17r/+I//KO3+5E/+5ESAgJ049thjC0h52MMeVkBKPgy1cMapp55a2Izf/d3f7X7qp36qXOtz8YtfvAABbQQsCEm4T78SJnFNQhb+7v5LX/rSBYgkrwKL8nd/93elrR/7sR/rLne5y5X++l7bwh/+7n6hlh/5kR/Z8/2yORi7YpK1l2wSkM/0nWQvNXE0CTQJbIQEag/cv9/xjncUluAGN7hBAQjx2L3Mhz70oe6EE07ornSlK3V3uctduk9/+tPlHXn/v/zLv9zxsBnRP/uzP+u+/OUvF4P7C7/wC93Vrna1AhL6ny984Qvd/vvv39385jfvDj744O4KV7jChQCC708//fTuL/7iL7r73e9+pa2PfvSjpU+eCZTow1e/+tViuIUjsBzuA3owIv7veyADG/Gnf/qn5V4/DD0WwbV//ud/XpgSbd/sZjcr/XUfsPPFL36xhFg+97nPdVe5ylVKW1gRnxb22Ihp3jq5BhJoAGENBqF1oUlgEQkkTPC2t72tMAg3utGNCkCQqOjj+w9/+MMFIDCOt771rYvh9jeMwoMe9KBiwF/72tcW9oAXLnfhXe96V0lovM997lMSDxMOYJjf//73l3yGJzzhCd3d7na3YuTzcR2w8axnPat7/vOf3z30oQ/tfuM3fqM7+uijCyMgB+LXf/3Xu1e84hXdi1/84gJazjjjjPKddrEdP/3TP13689nPfrYwEACQPnkn7WAs3ve+95X3kOPgXv/HOjzqUY8qgOgtb3lLucf7Aj6AkHcFIBKOaHkRi8y4ds9uk0ADCLttxNv77nUSYBABhBvf+MYFINRxd4ZX7sFlL3vZ7klPelL3L//yL93LXvay7oILLuiOOuqo4l0fccQRJV9A2IEH7nuAAhPgvnzQ+m94wxtKfgHDfuCBB5YQRT6MLu9fX5785CeXRMr73//+pR199Lzb3va2nR0Yv//7v19YgHPPPbf78R//8cIyAAOXucxlumc84xndK1/5yvIMDMNnPvOZ8rc73OEO3e1vf/sS2vjRH/3RwpgAJR/72MdKn88888w9AASjctxxxxUmBMMgRJG8iuQ0NJCw1y2F9kIjS6ABhJEF2pprEthuCbz5zW/unvOc5xRjCiBki6F+AAi8/ate9arFKEskfOlLX1r+jiEQ13/a057WPfCBDywGVBKiaxj+X/mVXynGO0mMvjv//PO7O93pTgUA3OMe9ygMQz4Yhm984xvdWWed1T3vec8rAMEzsAFPecpTuite8YrdAQccUICBJEeG/fd+7/eKhw9Y/OzP/mzJUzjttNO6N77xjcXgAy5CDKecckp3m9vcphh8oQ3vqh+Mv5wDeRm/+qu/WkIQGIoXvOAF5X2BptSCkF+BiUhCZAMI2z1T2/M2TQINIGzaiLX+Ngn0JAAg8JgZQwYZg5BEPEDgiU98YqH6UfAMKfr/Pe95T6Hd/Z/H/9jHPraEGHjkgAKji8IHCgCExO9D/d/5znfuDj300FL3IOEMbQkxMPAofqDjVre6VXmGvzH0wgba/Nu//dvuvPPOK7S/cAZGQP8lHgIGb33rWwvoYfTlGmAQbnnLW3ZXv/rVC8jARDzgAQ8ozID2ARoAwL+xHLZ2el+JmzUQqAtGtYnUJNAksLUEGkBoM6RJYAMlUOcWByDwqnnXDHsSFRNiEPuXi8Dw24poq6IkQjsWGNr99tuvUPgYA0b2K1/5Snf5y19+Tw5CqjPy9IEJyYOHHXZYofmzdRJzIR+A944VkMwIdCSR8uyzzy5FlCQUYhNcCwwIGwAJaif8zd/8TQlJAAhhEIQkTj755AIQgAjgRDsHHXRQqfvguZIVASNAQ9jiNa95TQEI17ve9b5rm+MYtSA2cMq0LjcJzC2BBhDmFlm7oUlg5yUQgGBr4Otf//ribfOWsQLZDshw2+HAoEvuE2pw/Yte9KICEHj47pEnABAwvhIH5RoACje84Q3LVkEf1Dx2gfdvWyVGQNgCCODFAyTqLjDMtiXuu+++JRyQcAdm4HGPe1xJhpRDIPfBzoUjjzyysALCFf6GLXj6059eEiUDED7+8Y+XMAiAcNe73rUkO37wgx8sIAGoEVYAXIAV/VQj4lWvelVJanRP2I+dH7XWgyaBzZJAAwibNV6tt00CRQIBCLb0ife//OUv725yk5sUr57hZMj9SA4EDK5xjWuUmDx2QPxfLoF8BYmG7n3MYx5Ttg/ywoEJ4QMGVxsMrLh9tldqgwG2e0K7vHRAQGIhIICN0BdMRj7aBkwYcs8UWhCOwBbIPRA2cH3YAvUUgAKhkY985CPluiRh2sIIEL3pTW8qffa+dlQIr8hrsAtCDoP8hn4iZZs+TQJNAsMl0ADCcFm1K5sE1koCDLZtfLx/uxMYaXUE/DC2/qb8sXg/Lzt0v78JNfib2gL+LWfA1kEA4dd+7de6X/qlXyrthY4PIMkhUJgI4QBt+RtDLWFRzgD2wb/r2D+ggT1wra2MPv6GdZA74G+ep03hAiwE4ABIAB3eBTugnoHiS4CGfAiMg/eSzOjjHbwvQCPcoD/1Vsy1GsDWmSaBNZdAAwhrPkCte00CW0kgSYSuYRT7mfmMf80CxDCnTff4noGv26iLLdWMRd2Xfiw/4GFS2WTfARU+2YaZkyDTh9xXl09O7kOe23+/OukQ0Mj1ddnlunJi27nQ1lOTwHAJNIAwXFbtyiaBtZNAfTZBOlefYVAb7RjHScVTc1197sGsl81ZCCnM5PqUUJ52b23Q63/XZ0Ns9dyAh2mGPu+R46frHRiz3qd93yTQJHBhCTSA0GZEk0CTQJNAk0CTQJPAd0mgAYQ2KZoEmgSaBDZIAm2b5gYN1oZ3tQGEDR/A1v0mgSaB3SOBOjzU8il2z7jv1Js2gLBTkm/PXbkE+vF58etJn6ZoVz4U7QEjSyBzNvkm/aTSkR/XmtulEmgAYZcO/G547QCCZNA3gLAbRn33vGMqWKpTkTMmGtjdPeO/HW/aAMJ2SLk9Y0ckkIz3L3/5y+WIY0WFGoOwI0PRHjqyBGoGQTGpX/zFX7xQie2RH9ea26USaABhlw78bnhtzIFtd6r+KQ2scI7iOz711rxJ2/52g3zaO26uBAAEPw7A+s3f/M3uwQ9+cAEJLdSwuWO6jj1vAGEdR6X1aTQJKM6jtLDTANXxV663X1CoAYTRxN0a2iYJBCAAvubvMcccUypgthDDNg3ALnlMAwi7ZKB362sGIKjr/+hHP7q7053utOcAod0qk/bee4cEAINHPvKR3Ze+9KUGEPaOIV27t2gAYQeHZFZVuB3s2tRHT/O26yp96+TF1ADBqYYAglK/dfnddZRz61OTwCwJKFWNOXD2BKDg3IlVr726UuWY9RhSdjvMSF1lc5Yc2verk0ADCKuT7dwtWyR9w7XqBT9PJx0D7BCgPrAZU1HM058h1wYgOELYaYZ3uctdSoihAYQh0mvXrLME6AsnVjrM6hGPeMRKAELWetZ4zrqYdCZGdgnl5E/3WGfOyPC3SWd0kK/38J375Qz5ZFfGPPLvn+Exz73t2skSaABhB2eGBWRxyLJ3Cp2T7SyoH/uxH9tjwILYf/3Xf70ca7tTH/1wzO+3v/3t7jOf+Uw5qpeScNreD//wD5cT8y596UtfKPlvp/paPxdAOOecc7pTTjmlAYR1GJDWh9EkUAOEVeUgqCXCeDtN0ymb3/jGN8rBXhe/+MW7X/iFXyh/+/rXv150gdNB6QB6iq4Q+qDTfCeBcpr+ykFh73znO8spnje60Y3KiZ1DQDy99K1vfaucKvrVr361HE1+hStcodyrP04WXScna7TB36aGGkDYJkH3H5O9+TxyE/s1r3lN97a3va0sopvc5CZlokPEtubxEG54wxt217nOdfYY4K28dt+lSNA01D7ktfvhBOj+9a9/fTli95rXvGZZeI4b9nOrW92qu9nNblb6nQU5KeyQnQUW8KTTB4f0a55r+gBhv/32K8pjiPKZ5znt2iaB7ZbAdgAEa946BQw+9KEPdW94wxuKg3DAAQeUpN9Xv/rV3Ste8Yqy5m9xi1t0++67bzlunKH/oz/6o/LdL//yL3e3vvWtSxLlpI/3sE6f8IQnFGfp4Q9/eHelK12ptEmP0RnCgpM+gMs73vGOckw4UIGt8Df9vd71rld0Jgdm1ifvSS+sMyM66z3G/r4BhLElOkd7McAmtYUn2/6KV7xiWSAMrUkLHf/VX/1Vd7GLXayceY96C/OQrXphGfwGKqD2z3/+893lLne5Ajj6hjjV1wIeLMJ6259XyDP826KxiD/5yU+WLYNXv/rVu3322adcA7y84AUv6K5xjWuU+D7A41rPCJWfuKK2KIL3v//93SUvecnigVj4NaiYQ3yDLq0BghyEAITmVQwSX7tojSVgjSXEcPTRR69kF0N0S5jO5zznOd1LX/rS7vDDD+/ucY97dJ/+9Ke7k08+ufvoRz9aAIPtlthEH3977Wtf293ylrcsfcM2JtxQb8f0N+9ywQUXFP1Az2EohDS179pf+ZVf+S6Q4L53v/vd3Zve9KYSXrFDCRj4kz/5kwJMOC23uc1tCpNQ5zQEAMRJyHP07+d+7ue+KxSym3VFAwg7rADiUWMPzjzzzO4qV7lKocIZTgvAwkTh+TD2JrO/53sAwqIysf3tK1/5SkHUQIXFob1QhNrwb/dYSEHnjDoqzoLxLO1D4xZGjLxnvPzlL+/e+MY3Fk/hzne+c6kr4Bp99+xrX/vaJTziA8UDKtr2LH9HOwIZFIziLje/+c0LUPjBH/zBlY1CAAIl9rjHPa4BhJVJujW83RKoAcJRRx1VjPCqmDHPoheEAeinm970pt1xxx1X1jSn4VnPelZhEI888sjizNAbGIfPfe5zhT1gfOkbzILf9Aa9QD/4aF/40jPoFXpRjQcA45d+6Ze629/+9t1P//RPX8h4f/Ob3+xe+MIXduedd14BK54DnAh/6pP7MJ10j2e6Ps7RRS960fJ8TIPwxJvf/Obu+te/fqkpAVDUoGBVMt3u+bLI8xpAWERqI94TgPD2t7+9O/XUU7urXe1qHU+XR8+4YQIYdAjab+j44x//eEHMjDm6/x/+4R+6BzzgAYXasyif97znle/QgFC1/AYLmzG2KIQExAS/9rWvlYVoYWAFGHn0oTYxBFB82AcLjEeABgRaeAvoO8+0IH1PMfh88YtfLAAFmJFhbTHe4AY3KIsfODj33HO7293uduXH+1r4q/qQ4bOf/eySg9AAwqqk3NrdCQlsJ0CgJ6xnIYDjjz++GHP6ypr/wz/8w6KzMJaACl1i3b3vfe8rjgZDHb1Dt/hwHhQts/79ZqQ5D57BcaBTrFsAge64+93vXljKOqeAE4J1lWPEQbrvfe9brnWNkINnXupSlyp90W85EUK2Qrp0m2u18eQnP7k8+6CDDirA57KXvWwBCGE5GoOwE7O7PXOPBBhOKBiDIF53xBFHFMPN8L/3ve8tf7NoLMoXv/jFJQ/ARL7EJS5RELpr7nCHO3QPfOADi0FG+ft96KGHFgbhla98ZSeLn4dx+ctfvhhwHrwYoYVjUWvPgnjXu95VFte97nWv74rd6SdD+5KXvKSEBW5729uW+6BuIABI0B6wgxWQbPQHf/AH3Vvf+tbCOMijkGuBpvzd3/3d7o53vGMBGDyGVX0aQFiVZFu7Oy2B7QQI3pVjwAtXU4THzTBbvxhLf/P5nd/5nRJm4CBwKBh1wIEhpru+8IUvlJ1Eb3nLWy5klP/4j/+4e+Yzn1mewWBbt/QMZ4Kzwvhf9apXvVClSProU5/6VHf22WeX/kiQvOc971kYTqAjnj999p73vKcAB9cAHfoBEAADnBYg5z73uU/RWUCFTx0i3emx3qnnNwZhpyRfPVeuAZr+9NNPL8iWYTc5GfKPfOQjnR0MDCwP30LAEDDO/iakYCF94hOfKLFAhtr/sQSHHXZYAQRi/ooEYQ38jccOgLiGV41lYLChfQb9ute9bgEl2ZucrlpwAIA+vOhFLyrghAdx73vfu/vt3/7tcj8w4MeiphgoCqDgyle+cnf/+9+/gJIzzjijLPjUJJiWgDTG0DSAMIYUWxvrKIHtBghkwCiHMeDVyxegDwAAa5uO4ADIC/BvYU46ApWPfQQY6K04CnKCOCMcDk7Mxz72se5JT3pS0SWcJrqCbmL462TDHFQlxIF9YPT9YAeuda1rFYaTQyK8QB9KpqT7/F/oQs4XPcg5wh64V+4XJ6qf1NgYhHWc/buoTwACr/uss84qhvRRj3pUeXuMgRCDcIOsXoYUWgcQGGW7HSwIC4lRBhB445A6RG7Co/c+8IEPlHghOs9+acwDgKB9MUNAwTYpYYzzzz+/23///UtssF+sJImLQh0YCovZwnIQ0oEHHlgWJaADOFj4nmNxuR56F+LQf2WPsR2u8ZxVxvgaQNhFC2mXvepOAAQiZuzpEeAfW8CLF/8X92f4n/KUpxSjTWcx0mEfeO1ofh49nUMvAQuMP4cIGBA+5czIt+KsYBXoI/pOboBPkrEz3BwZoQlt0j/0KOMPwMhdoC8xCCeeeGLRQ0CFEAbdAxAIhXB4FJvyf2Cl/jSAsMsW1rq9Lmoe5SbRhxGXkZzkHUbcx/9dJwTw/Oc/vzv44IMLvc+jBxDcz/BaRCgzuQpCFXZFYBCADpPfIoDOs4MBuraggA2hAiAERRejHZBAGWE0LB73u04IxMJ74hOf2F3mMpfpDjnkkMJkWKgPfehDy37keteFhSbJEZDBksiRwHiscgE2gLBus731ZywJ7BRA8FyGW1gBK0g3Wcuve93ryqFoDLodSmL8WMtsu5YfxXGhP4AFxhzDwFmgJ+gvjKkkSDQ/XYFVtXUSQEiOU3ZWAAWSHv0fIPB/AIROE2a1zVH/hGTpQEBB6AGgwBLQgXQqBsT1HCoMR2MQ/m+GthDDWKt1iXZqgCCcgPbKJPUdD5wxtkB47Sa6eBmAAI1bmIADwwsgvOxlL9sDECzUAATJQ8cee2xZTAEADHqQu+1IDDdjX3/CHED8kLfdCslKRi2m3KvFmBCEEIh4pFwEf/MO2A1KAoUoxIBB0N9Vb3NsSYpLTM5269pKYKcAAn2AabR+hRKFCMTuGXfsgTwF2y8ZaCFTDgDDzUmR2AwU0APWpX/TBfREAIKERwwCgACIAAjyBepcpexG0I7ncXDiRGE2HvKQhxTQIaESEyHEIH9Kn/ydHhOepQuFRgIQ6hBDv57L2k6EFXasAYQVCndo00IMUKwFg0GwuGqAIPPX7gK5AZgBAAGDYFsR4wshCzFYAGJsAALDb5FIwhEzfMxjHlMSEy0Y1H8Agqxe91uI6EDGu18TwXvoo50QFiTjL0fBddC48AUAALQADBgFNF5ieihIQECSETrvqU99agEPvA6LHouwTEGnreTcGIShs7Bdt2kS2EmAwODbhcSQS67mmdNFwpvoenkI8hNSD0XogN6w80FCtToFruWU3O9+9yvGvQ8Q5DHQS64PgxCjnbL0ErCFNIUpkphI92BhPRuLqlbCCSecUHKehEY4WvIQOFecHayG3RBYTw5aWM0GELquAYQd1AopY6pcqcXCsEvsS0IOpC7ex9ij68XrsAUyeyFvCF4ugCxeIAI7gCWwq8HCwh7Y/uh+CULaZsxRf6l1rg/ihSeddFKJI3rGJMrfdcIJ4oy8AgtLTgHgIgcBgsdoABIYCQrCIgZQoHb7lPUHurdIvZdsZsmN/q4/qwg1NICwgxO8PXqlEtgpgOClOAQcAB44vSPkqD90AYDgb/QDHcYZEZ60E8taxzrY5ojZxEQKMci9YqTpKvqBo4SxlLjI4EtUpJ/ok1Q7tLaFU/3QMXZFyTEACDgidKQcBM/mPAElQq6eqR9ypoQU6DDhUQ4MEEG3ZSdDXeRtpYO5po03gLCDA5NdAsIHn/3sZ4vR5Emn2FA8d/Sbfb6QLUCAGvNvoAFV5m8Ms2tMbLE4iN3kxgpYANAyIywRUeJiPHYev+8/+MEPlspj2pzkzVv86inIYvYsC9yzKQY1GTxXqMA7UR5YA8oCWyG3IfkI+ubvQAklkD3Sqyq73ADCDk7w9uiVSmAnAQIdgJrn+fO6ozMwktY2nZDdSfSQ64Ug5B0AA3547sIDwhNyregMjoit2Sn6xNiHPU0dBG2F5eRw0J90joRtv/WJsQdQ5DsAKdgNYVht0VV0kn7TrdrDRKgKC4TQVUnSbgAhWWgrncqt8UkSiOhTWSynoGVSJhnHBM7ZBX7n1LP6PINcm++1EXovpY/rWL/FgGbznUVmMQlhYAf6WbzpO2Pru7rUc7x+z6rLp7on50FkQaf4iPsBDYszGcn9e8eaMQ0gjCXJ1s66ScDasQvJWl51JcVJ757TG/u7kLKm6ZYwg9Z+9EbuSwJzfQojHZj7ktwYPRnA4Xq6pdZn0ZH6GbDiuuilsA7aTnv1qa7ay3Nzv+tWwWqu2zzaqj+NQViT0ap3C/SNZY3hstB0O3/v7zgIrVe/Wn/LojBEtjyi/tBxaLdZuQA1EEkf6j5lQfVxZ73Q+n1Z5RA0gLBK6ba2d1ICkwDCTnu89bqPgV3UyOb+SYY6OQjk39cttdNSy6N2Rvr3BUhsp27aybkz9NkNIAyV1F52nRCEpCBJRrY1ou8k76yyJsFOiLABhJ2QenvmdklAEh5qXWIzWt1nb1vD2yXL9pzvlkADCLt0VsgFkBwp30FYIUmLi6L9dRVjAAIw1E5zXNdRav1aVAINICwqufW9b51YjAYQZsyTUE/rO50W61lCBXW+Q592W6zlnb2rT3HKdUgdBFud7JzgYTUva2fHqT19eQmg2QEESXoYBEm/NcDf28D+8hLbjBYaQNiMcSq9TKJLvSd2b1h4yRvI7zpRaNrwTMov6Oca7PTQ1v2RTxGAoOrb4x//+FLlbVaexU6/Q3t+k8BQCTzsYQ8rGfqKleVo93p+xxGY1N7eoMeGymkTrqtzNrbK4drOd2kMwgRpZ1EpSqS+AJo6uwJy+boZxq0mTQ1u6utk/lImfvZGgIAlEEqxvUnRFVXe7H1e5eFQ27l427OaBDAIthsqJuSkwhQvi2S2SlpsAGG95o/ieLZepjz1OoxPAwhTAAL6TtXBCy64oGzHyx7/rRD5ek237+5Nn370jqk/4N+zPtN2KMy6bzu/74cYjJtcC3uzVXhUsEneRWMRtnNU2rNWIQFrVpEh57CoIqgAkDVqy94mOjKrkNGmtMlZM3YKQjlkihPTAMIajx5qOkcsq/anCFEGcY27vWXX+hMuW4WiVGZNyFnf77Rcam/Jv4EAY+YwK6fMKaWqsmRdiGqn+9ye3ySwqATMbYBXETTnIagy6G994zJp3W4SA7qofDblPuPDiQH0lLCXT5KDqXb6HRqDMGUEVBhUylh54pxMWNN2Oz1wYzw/YQUTNFUdZ7W7ziChzx5QlEIMTslUA95hUn4aQJg1yu37TZBAAIJSxE5AVEbYp2bHtlqvDSTs/CgnYVqJaeXpAQMA4Sd+4id2vnNqTHynzZKJA6Fk6IEHHlhKEzMqzjZvme9rMWcHdcK0RrUCQY7HlqToMKkGEAaJr120ARIIQAACFD2TpDjpoLUNeJVd28WErD/5yU+Wo62dbdEAwgZMB6hcaAEqP7Quf4EAACAASURBVPzww7vLX/7y31VKeANeY9d30Tg6BMZhLY6VbQBh10+JvUYA2DGnHALBjlLmzLTcms0cXoXrMJ1q0rQQwwaMYQCCw4RsJZJZuqoDhTZAHBvbxT5AkINQnyu/sS/WOr7rJWB3ldwD4UEAIdscd71gNlAADq4CEIQWGkDYgAFsAGEDBmlAF2uAIMQg67sBhAGCa5esvQQaQFj7IRrcwQCEloMwWGQ7e2EDCDsr/7GejoZNiOHggw9uAGEswbZ2dlwC5vZBBx1Ucm0ag7Djw7FUBxpAWEp8239zAwjbL/NVPDEAwVkMlGljEFYh5dbmTkgAgyAHIQBBDkJLUtyJkVj+mTVAcIS3XIR1+LRdDFNGgWGRpHiFK1yh1DvPUcjrvM1vHSbUuvWhAYR1G5HWn7Ek0ADCWJLc+XYCEH78x3+85CA0gLDzYzK1B6kJcLvb3a6TpJhdDHsDOMj2Py+fbZt+50wGBaL8myeyVZnWNR6+PV3zrt7H/mLbHCUo2sVw0YtedBO63/rYJLClBOxeUKtFvY/jjjuuu/KVr9wSqXsSW+RMg5yJsJ3TrwGE7ZT2ks8CEHieBxxwQKlOdtRRRxUGYW8ACBFNXTK6LqGcxbG31HwIgwAgHHrood2DH/zg7od+6If2qrFccrq32zdUAsDv3e52t7LNUaEkIYZ63e5N+mrRISIbH3otjpCQzFZyirOUZ26HHBtAWHSEd+A+AOGb3/xmJxZ0mctcpuyf93vTjaZF8u1vf7v7p3/6p/J+jGe9CJxbwBtBb/3Ij/xIYRE2OaZpHL3vq1/96u5FL3pRqXP+O7/zOw0g7MCaao8cVwJZywokKZgE+GIQGkC4sJwBBLISjvna175WdJ6/0Qv50HEOSvJjm6Hf5LidTEIDCOOuj5W2lsX3h3/4h8VQOmELLb0plHsOYSKkhAwsjD/90z/tPve5z5Xa7T5KDvOmg7IlZjpb/md+5mfK2RO/+qu/WhgUh1XVKHo7F84yA50QgxM5P/3pT5d94gpfAULt0ySwyRLI3P7gBz9Y1vjVrna1UoWv7+1uh/e7rnIkIyXz/+qv/qqs/7/4i78ouo4DFMfHNfQeAOFvdJ+ieHQFsIBtSLh1lXqvAYR1nUUT+pW4FZTJmGxaPN4iABK8xz//8z93n/rUpwoocCAIb0MijOTLS13qUgUtu947fuMb3yinHlpQ3/rWtwpI+Pmf//nyo1AUsEQeUTqboHzIgQK10AGdKIZNAXsbtGxaV7dZAuY2w+aD+ZtURXET1uiYYkvoFEP6xS9+sThFHAS6HDDAslzykpcsjlGu9R3w8OUvf7k4SHQc58i1Dk+Kc9gHCGPKtgGEMWdBa2tLCTCGDDxA8Cd/8iflvHhA4BrXuEYBBo6GpVByWJPGQk1SOhD1V77yle5DH/pQYRwskN/4jd/o9tlnn2JkAYVNCbf0F3WdtDTmAm9TsklgOyWQeVzP7zqXKH3ZbXOcM/ClL32p6DzggD7DBlz1qlctx2HTXz50X63//I3e/Pu///sCLD760Y+WcMSv/dqvFd0nB612Llw/pmwbQNjO1TPCs+qTDkdobuVNRFFklwLj/rznPa9M4rvc5S4FEYcN8W4Wg+/qHQxJ5MkJY5C1xfbZz362e9Ob3tTd/va37250oxsVgDH2AlmVgKIIAoI2BdisSh6t3b1TAjVQ2G0guH53DMDTn/704thc85rX7OxEkz8GOHCKwqyGPfDb3xJGdQ3diE294IILule84hUFIDhWG5MacDF22f0GEPbOdbk2b5VFIoQgRPDKV76yUGuS8kzwJN1YDLM+dQjBfdgI7b3rXe/q7nnPe3a3vOUtC0WX0Mus9nby+92mLHdS1u3ZTQI7JQF6j8f/ute9rnv961/f3fzmN++ue93rFs+fzvN9HKCAg2l9BRbCpNJ7wMa1r33t7ra3vW3J2wIOxk4GbQBhp2bOLnoub1ks7W1ve1vx/C0SIQU5BxB0nby4lVhqgAAEaBf19oY3vKFkAl/nOtfpbnjDG5azy9c9lj8NIDTgsIsWRnvVvVoC9BO9xIGRWH6zm92sbPmUZBhDbr27zv/7oYVaOPQdPZn7/vEf/7GEWhnwa13rWiVM29/yPkaooQGEHZ6iq8xA3eFXK4/PzgtG/D3veU+p4SCzGXI2gU36odn7dSwz4Qbta0v7MoLvete7lrgeSm6dww39WG3+Xy/qMRb4OsyB1of1koA1h66W08PwyN3ZLXOtH/KY9N6T1uK8I6gN27YZ2Be/+MVF5wmpJnSqPXrLJ8zAVmPgOwxB+p8E53e84x3dBz7wgQIQHPoWoDHW8doNIMw78iNfX3uM62zQFn1ti+ATn/hEodh+6qd+qiwSCmlISGEomwBgCF/8wR/8QUHnSlFf4hKXWFn1tjHHTFu8DPLQ5wYQFp1p7b6hEkB5f/7zn+/e+c53lvj1LW5xixKa21s+0ww8o8rzjiee+L81J+FZwjTARGf16fp5ZYMN+Nu//dvuzW9+c/d3f/d33R3veMfu0pe+9B6naV6mcBp4kNvwqle9qjCzak5c6UpXKiBibIDQTnOcdwaMcL2BhOJNWEazDxD2BlT/9a9/vYADCuk2t7lNCS2M8V51G1Czxf7+97+//EhaFGpY1bbH2vsfY8ywH5QSYNMPjYwhqxGmamtiL5FAkoU/9rGPdU996lNLWO6QQw7Zq44aT/0UQ+bfQAEjTQf5TVcwoBwL647+Fe4E0Blx26z9vwYJ865DDM3555/f8fCvf/3rd7/5m7+5Zwb1cw2WcQq0ZSyxs7ZLKtsO7NVMxTJTt53muIz0Jtw7T8gAOOBd2+aiCEZ/EiaBL0ZonrZHfq2Fm7MtR7VAC0TmrsRC77Uswu3LiiKwBfJlL3tZ2c2AbqMAxs7qrbOMa2Me0BCKr/49TXgZz2c961mF8nUCntBIP5Qyr3JaeLDajXu1BOotdOLXsuqtSWG/PoOQeb6Ju2tSpZB+pW8+85nPFEPNeWD81VGhc/1OjQE1WaxBidOcC7kCAENd/nyedei5z3/+80udF8e5J+8geqIGMcsABOBGW3IcOGInnXTSnsJUy+pYi6EBhCVVQpJM0HboHoUwDLhKf/4GsaKuoDuUkw+UamDf/e53dx/+8Ie7fffdt2SjmtA87kxshTNQXv6WspuoJAc1meDLLt4ogRi6MWJvtThNXODA5GX8FPiA3pM/sKTov+t2CxyStv3RjgagZJHFZ3EbR9spsyNCJTOxQnFFHomxNa6UjIWoMpq/e7dkJvvO+6r7oG+qJbqWUkJp+vEciZba951tTD/6oz9arjefzCNj7Xme4cd3qGHPH/qpgY17xvIwhj6/XbcaCRhXc0OYylzj+Zq/PoCyuaIomR9z2d/c8/KXv7x74xvf2D3sYQ8r2+6Sk6Ad84qOypZjc968xHJaE4ydrHnzM3PdPUKIyTnyPHOVDkNPj1kafZqjVMfnP/7xjxcPXoE16/bqV796yU0CEFKqnW6IofZ+1qL6LO71b/rD9mnF2AD3Ifo25yl85CMfKUnZGFNJ2foWp8HY9MOUmR3zgBD35AA/NgIgYUeEjFKWedlZ1wDCEhJMZUAKHhNAsfNiTTA0twUrzmexUegMF8BwpzvdqTz1tNNOK2jvfve7X0Grtv9Z7Bakva5QLGZBcQ2L3uJ+y1ve0h199NHlu3kMxKTXrA8MMWHHXMSeB+h4R568GBylEjDi97RFsuiQaM9uCbURGNaDDjroQk3NWnzJB+BNGAMG/JOf/GTps22Z5CXXgfJQKY6hv/vd714U4Re+8IUy9hSicaQ8Ubfu1x/9esITnlBk8MIXvrCABcVOJBgBULwM3sprXvOaMs4UbLaDKqiiT5SBZ5lrAJBS20OUVhRSHwDOksei49Du2z4JZE68973vLXOTnjFXxKJvcpOb7Cnj+2d/9mdFt9zhDnco8/mss84qc+khD3lImZPmZzxGQPeBD3xgmVsMJxbQNea4Yj03velNC2gV+/Ycc5XhZYTpKU6MewGQ613veuUHcFl2vjG+WzGC5ndCjc45sUYxAp5PLp4fjzt1B7xzXZFW++SIYfHjvelrhreu1rrVCANN3t04CKvS4dnSmHoG02Qxr4yis40BBoHOpXeAuDE+DSAsIUWDDhyoO25R2caCEXjf+95XDIfFZIuLghi8Z4sHeLjVrW5VJuUzn/nMsohRfBYhA2Myue+tb31r91u/9Vtl64r9szl7wd5XbWtzEQqpprgCcCwqE8siXhZ01OIkkxNPPLHE4Cww71x7rqsACJ5poXg355fXn60WX5QLBgKIU8qUwQZwLOqHPvShpQIapcMrIDNjrf4CJogClknMmJ999tnFs3LaJk9CUROeyXOf+9wyT2Q1M/BA3kte8pKikI455pgynqeffvoeZUaB8wa0hYWggM0N88EBT+LHPrPeK98zEMCNvvPqjHf7bLYEcoCbOUaZ85KBW/OQcWOsFSMTpwY4GQ9zUP4Bz/bWt751mVMAAkPK6KPFH/vYxxYA/Pa3v73oJCzDqaeeWlhQR5ObU8cee2x32GGHFSBtXTNK5rJ5zOt2Uin9JreG/urrq61CpjXjlQJq+m3O5nn1yCW3gjPFk7ZG6VlAxvXARXZLuTZJ0t6DXuqHVHxvVxRdYv3f+c53LuuvX7Vw0uxhrMnRWsMO63PATViZsRiE7GygI+guoEYeArsx1HnYagU0gLCEfmAsDIr4lsVmIjAawgniWIpZYAIYSIwCcIBF8G/Ul9gzNoDH+OxnP7ssbp6lawCPG9/4xsXw8EAV1zBJTfL+2QOTXiETPtthLDKKAxBAE5rE/k85WAzACKUyrXb6ImL66le/WmJivJac6DYvQp73uYyqpD9g6zGPecyFlNK0Z2fbF1nzPMia58EoR9lc7nKXKyCOwmOYKU8KAAPEqBsTQM+iPPnkk8v7YjCACoDBeDzqUY8qjJK/OQ7Xoj7j9NO7y17ucgX0mRM8D8/ADgBrlJQ5RUF7BkVu/MgU65RMbHICAAJ0EqZKWMJ4J1nLvmkKXAikfTZXAlnjvPwnP/nJ5UV4u+YqMED3GGPORHKdGE1g4ZRTTikggT5BhTPu1j/wCVCYgxwdND02AaB0iiyGzFylT5zYCFTst99+ZZ1hwqx5cxflzbjYtaTd/lbm0PtJMDanvQ+dau5GPwl5aMvfzXfr0jv12zO36VeGGZsBQAt5WB/51Ou/NtDTQqxhE4AE1zP2GJNZx7KTgX4AExiEVEMMazome1q36f2NJadFPxdxIPuroQGEJfSDiSzRh9I+9NBD98R9hBRMcGehQ9wnnHBCiTGjloEHBgZDgH52v0HgSULzaGeTmuHhAfA6oXILH9CwMGYhwygOhg+iNHEYO2DAQrTY9M9EBmoscv2HulMTfAmxlFv1gSdOEaHngaAxJuysfpGdMAxjy8NJPYStPG3Kzn1AGmBGAZK/dihZlcpQuNqy+IxvYr8ULwDnHooJYDSWvCwAj8L1Q1FC9eTB2O+///5FUQMXgIW/Pec5zymKN2Ohz65HVQKHvCF9oPgo/ShZisiYSsYy3uYcLzB5EQyIf2tbO0Ja5qH51T6bK4EU2AE4Gfsb3OAGRYeYu1gqW+x473KW6Aw6yJyRf4CJpHvMF/MTKDanzCUG3fqho6xbbXJajj/++DJ/AAJGkuGUFKz2iH3+2jWv6BPrg25B7QO2+lqv/8xd11lDdJRdBgBBfjgwOQYZMPAcv/s5DeY+hk5ffKf8cJ45LQepDxAmzYKEA+hfhhegB7Cs1f671PdzHsjG+sIUbqV7xph9eUfzwJgbH87mGCHjBhCWGCHGlhGCXtHJDASvkmFmjHmSFqXFa8Gh6MTvLCKUIDT+yEc+sgyqRXqve92rUPEWCAPOWL/0pS8tyNmgu36IB57Jz+hBsk95ylPK8xmJOlnGAhCD1Db6bGjBoqEi48Wj6O0okJ8xC9gMbXer6ygilD+jKsSAXpzkQdRtxHOhAHknjDejKk5LEUqwFA4if6wAAw1wWYByCCgERt3YG3PA6HGPe1wBEv5vLhx++OGlT8YTmMA4YSfcz2Dz4NC1gATvh6IDQIFMcrTHGdXrY1zNiexy8duzgRhK33P8P9XXzEdjLQ/EfAVCa89jDLm3NrZfAtnP/4IXvKDMedSysTUfzFdZ++aUv5nj1rc8AqAUg2ROYbQAAYyW60KBo+qxBwCBeQz0MnrYBAwDdgsAeNKTnlTmKe/6vPPOK6E588x85vm7ZlIoK3pI2BVrJhyhb+atPiRHwPqzJvRPwmAYzuhB7XB09A3osXYwKEBD3nkIgzBp9AJigAHg+7WvfW0BPPRZHYrt62S6gdNA99P3NYsx9izJOjbmQBxbYmcKfV47R4s+twGERSX3/xW1LH3G3oIQgzYpeI4WJ28SqudBWwS8wQc96EFlAVtwlLzYNqAhBs2YWaQMgd8WtIkPkQsBpITw0C4n810og8Gy6LKLQNuUB8Ol76nDMLTtIdcxlAyk9weetkLdQ9obcg1gJW4KTT/+8Y/fQ+9theKTCYwy5cmI+xsbHr5FRjnxjihhLA5vCeAB5ng/lLEx4jGE1mWIyVgIieJDNfoeEOTV8djOOOOMotQABMrsuOOOK4mM6N3swT7nnHMKqHB98gYoHYrKPEr8lHcD1FDsgA6FlnwP1/C8zD8KvN5KOUSm7Zr1lEDmLd1hrjHePH76hIECcI03gw7c0iHmonUBoDLknBvzF+jNUetyqYS2AA86Sa6M+QToMj4YKutDqPTcc88tzgxQzRkQpjM/AW2MmXBWWMnaa095db8ZeO3TFcK1+m/uera1J7RBJ/YdjGzbNOetK2tTaLdOQFxm5AJiAhTIlBHG+JHpJEbUPSmQBNzQJd6/PpxtmT7V9yY04m/6wjFgLzgg+jeGQ9YAwhKjZTLIVrco/Fhg4m8GCwvAQFuYDDBU6RrGxd+FJRgMQMCHoWDUIFOLKh4kmg1lmCSfoQyCRYtmNmnEsNHlnsGQpE4Az5jhHius0Bcl2fAwUJQor3rCDnmPeYfGePBaLGTPZnDrzONpz8y+aTkGPHrGl2IFcBhXY4R9EWPl4cgTAQaBBHKWt8ATohQBQdujGH0fCo9SRkuaBxJaKWpAEojk6bieojZWlKvxjifneZ5r7uiT2KIxq4uhaMNYmz8AjsRY1LH34v1RspQGhR1wsAr5zzte7frlJJCDgBhIrKR5SacELAK4FDyd4ztzwboAdHmY5pO5Y66Yi+Y53QMsmO9yEAAFITbzBdVOx/lOKI5O8ixtCX+Zv9aPdcjbd20YvH5SnvlND2I2hVrpQ2DbXNe2XUh29hx44IGF7ahrpyQhMRVUsaRYDIbbuqqrtE5LBpwleffVBti6wRQKNfg3ViPMSE3lu4/ulwdFTkLD5JSw76znzvu9PpIDeXJOjG1ClGOs8QYQ5h2R3vUGPrHAeKkGK6iupsKCSH2XSRyjmWSzeiItErPXF0aLoYAmTRq0G0NjRwHgwWBjFBgizxgjVjVJjIye/AsGkMdSJ+eEHl9S/Be6newsYosT6MGO1It82oKh5MgtlHyd1ZzxICdj1j8pUpvZwkTJYobQrVGquT/vm7mStvL/KKS8kP/nGkq8Dv9ke6p5Zlx5dspMAziACJApdEWBUZoPf/jDi7L2cW8tkzHl39raXglEz6Q8sDkSVqEG4/05Fl3jdwxMPPrMu8wTv+MBZx+/3+ZkQlfJpM9a6OuTvpHWpnkLfFir2AOAG8iRBwSYC21g34D1SbsfrFnvi8HA1ALWmNv0e9mRqHV19Lr3Fo4BggAXfZ6UE4YBsV1Zoihgbh3221u2f/X9nAUOCidQLoawMWelAYQxpTywLYsqXmmt1KO0MyhZqPXk7k/eegD7BqI2FP3r8l3/77wDKB5TgLHwYZwhfLEpOwrQcAADGjGGYoyJNEl8FsoznvGMgm7lOVAAoc5D2w0U+5aXJRbrtwXCS+ctZ1fBLINYj13GIUqtBgAURB3Xy7Xu965isBC8sJFEr7qN/r+HyDz96iuXnAuPmcAO2crGU5OMRmnxyDAYgKCkSowFtqP+DHn+GGPT2lidBFKUp0+Fe2KMeT3OAZzpUa2PFpkPWXdD9Jhn6ienQTKi7b+oeMZNCAN7YR7bjUFPmLfCs9kBMEmKQMqZZ55ZAAY2FAiunbVlJV87NJGdEANQI6Qo3DLN0cEcYkM4Rt4tBzMt26dJ95MhwCUUScZy2TDXY3wagzCHFAkflUUZmzAme7YNWqyUsB8enMlVV+yqDf4kAz+0G/FIs7g9F+JGEwIFJgqakaFgMDAG+ut7FB4K0Ra8vsEY+vx5rtNHSBo4yS4McpukWOZpt38tGVgkjLRYpFg8Lz5xy1kAod9eDRICENCG2o/X5nkZa+9pLvDgjYF8A7RoHzR6zlBFHECR3xRRxjrbZQFC4xsFixo29saZ3MU/0cs5hKYBhGVm2frdW7ON5hUvMttbw1CapyhuhjaePpDbN6RD5+U8UkjcPbQ7xsDclHOAvTQ3zV0eNqfL3wFsegvANm+nJdp5P/Nfjo6PPCfrcd61vtX71ADBO9DnEoYBBCEQTk9d16XW64CEbe5CHnKOApDGyAvo95mMOIXYS8yl3Kix9HsDCPPM+K7bUymMUYaALUpxbx+xYUragjS5oTixuXo7We1Jzvnocnni5RYIo8WLTOyc1yxZCL3kmXXcjnGDYv19kdDFIn11D4UgWx8oQRvmHcZcyFmkZIFyREvyKPqFmYa+QxRvtgkKW4jxC92Im5IjpWasGWjjzesx3rwaizO0bP89hyjimpJNX+SiiNNiDDAkFI/tshgi865WPPpAkZFDPn3FNKQfQ+XVrtt+CZgXCRWYl0CxUBMjC6yau+a/vBdz0xzNPKUfGJV6no09HzJv6UfGC2MgN0ZyI/aSEQMS8twcoKTf1k/CfJMMqratQ4wDIMxYazO6sX6Xsd/LOvQe+mvbZR/EBFS4zlZTYyIHKGWvxwYI5MQOkS+9IHRsvMd67wYQtljb9QIyIVKIAiAw0SlgC5DB9UMxu87kRfVbuLz3FK7wqBizeQYwHnc8WwuD4TUpKAOIWxIg1oDHYKFA5H3qvE+HzdOHRVUgjwaDgG5LwaR4MGMpqMjewmVAxQdl7c8LQsiZzHjqjLGEQ+AAqMJGWHgUQhIIjTdFIKzhtwRC75jtiBmvrZIz+4DR/+N5uS+llXPio0QzIQPjDZy41vvHI0zFtng88Vz647cdY7/onBnrvnkp8LGeu8p2Ero0fklsRWfTNQwuJ8G8oAfMheQK+F5CoN8SFu1AYLQyDxaZD32mLfrGvLUesJZyoIBVz5JZDxikHkPmuusTus1ameVIkQPgISeA84EZzbpZBUDQdnKNJIXSwXaBeK+wHHmuazkRbAAd4r332WefopPH2vKoL5wQv3NqJGcBGKlzQpadiw0gzJCgiQqdW4SSQFBikmEsxBwJmskT42+AoDoTWHzMAKKZUsN8KIrMIgktb6ExtpLheKsWRTKUF2EFFlEKi0w4nr0iQJST2DiPN4e8aK/fj3n7RZ4ytmUYWySKmSR7et62ABrJnfaHG2teumxvYx2aP0bYAvUexoXyNS52G1AcCqSk4tpWLEKtVGPM9UGbQJXaBsbWNkcJiMCHd4uHtpXs5n33RcZ2ne9JGK6WQx26mRdArsu70gfi+MJpwKlYPUqe4Qdiwy6Yr0kYZJiwnqhvND7PFkVuW2BYxXnnSwx85JKwK0cq27gBWfNWEabUQvGcoTpwK5kzwBIUGWBx/lUyCPps3XuGJEUOhDXerxJZOz0cRQyHPkpWtMPN99qpr5t3XuVe+sXOJdvsfWytzhkMY83tBhAmjE6QsclAUZvsjBwjzyjzIl0DEaLubf8BAgAAizSTyYKxMHm2PED3WpTYh0mGse5KJgFjYTKij3jHvIPURbCwodc+XTh0ws2rEIa2238PC4IBV2gEsMnBTbluGYBATkIt6DwUKrYGAPH3oUoo4w0ISjTk+VBq4nkULiUrtwMAoBx4ZQy1XAP0ZjwL9C6Dbrxt85IkmYTWaSyCZwcAkhNgCRhYmD6AASWEJcrx1Vspl1V4T4uM+zrcY/3yZH0AOT/AlvVCln6M7SLgeqfezzuJ5avLYd4zPIywD8CKVTB3zEHvBTzQO+ax+UWfmOd2vfC+JdGJ3/t+6Hqp351+y8FlDKEEWYaRE4XF42Fnm1+AwRh6xxoAjrwncMD4Ju9iFWugBgj0AGZRjo/EyP42x8iHvFOuXb6E3QVCzj6LyLrWl8YWyLPFk/wlTKaC5TKsUH9eN4CwBUDg8WINGB/GwEIy2UMxUzCoJgtD0RtV7xgGE9V3QdhoYgOJbpMjYCcBL7A/kWtgksQ3dBb2wjPtRkDRMUpAikkyyTsaorzGWKRDnuMa70Vx8VwsaF65YkCh5vqhhml9qynN0Gj2TNsaReZki0GwYOfJZo7hsO9bDgNlY/GnnLH+MNrGQXiJggUYKWdV1RILThIhJgMgcpRujoOexiJ4JwucApHnoIYDxS9cRLGndkHqF8wCPqtQjkPHeR2uM+4pJU6JY3bMEQDPDyPKy/JjfIVsUN6Je6/DO2zVBzqJw4KZtIbsVMn2XPd5XzordVcwXwqipVIqw5RDu9DfQpWAsPlu7mSNbdWHXGO+m7fWgnnLmYqxxrplG3V0wJg6J8YXowqsW/dhjPr6ZKwxzVrlBNDpHMb6HfOe9fM4kFgbxerobTaEk6f/ARZhEfuOVd1evfWaHOV2AHgMuLBmCunVbYwh7wYQJsyeeHSMv+p6vEm0dcqY1rcwfDx7xkBRIIvNJ4OjLRMLy4C6pogYMgluNeJ1PUPlt7+7HqiAErES0DhPAQIdY+DHWjRD2gkdzsO2FQcCF2rg3XhXXk2UTt4t+RL1YreoKHi/ATCGQCVLBln9dZQf+cyL6K8TzAAAIABJREFUzsldH5SgBQAY/bpuAACAIaIUKKOcyKgfqtAle1pftUVpOqCJ4bF4GaL+x3tGMQAG5AJUCBlZ7BRsqiX2740863k2aRw2bZ4MmUuTrglt6zvjCFQzktgYQDJFxmJIjVvYPfei2a3bJJKNUaJ20XeZZZhRygACJg5bFkrZXPLuwpqAEGCA6mdEbHvDblo7WU/eH4hQ5Mu/1QxJrY1p6ycGWB/9m3zN2xwvTUeZtwxhHUZYxTzUZ7oRoAfCvV8cptrgjvVscjN/ADTsi3azc2JaRcX0g04wDipbcjSxNkksTt5EHyRknPI7TKTnRu+ZC3Qo9sA86NefGOPdG0CYAhCgbFQz79QpfCbhpHLErhMP5E06PdBg1Yo7hs91qEGxbchf3KweUBOeZ2qxMRQWH9oPMhYLD1JdVdXDVSi0tBkZeMfUC0cPUswpkJITKsO6xJvJAsmODMaanCg/8X5KwkIFoiy6RRYFNA7kCS/IhtavHBEbNkL8luyNSQqhiAEDCAkZpe9+Ay1AgvMgMCa10g07lF0J5o/3j4I118IQTTOIQ7yyRWSxynmwyrYpTeEfZbbNiRx4ZmwSmkkyZ5Sy8AN2IRVPzUXOAGC2jgdZMTQ8ZvMGU6m/9cd7mcvmH9BKjzBmWIYU9cl6iiNCZhhQ25Bnnbjq+WSmABDjhMWwJoBazoszEGoQMibVPQkkA/P0s/e2QypO11ZJwYvOQboLcOTkCJUCkxy9SSc79o27/5Mb0ErWdIikRTYg4a7ojmmgP8nIxp4NYSe0wXHtl7HPO46x/htA2GLGWFxQuYzfabFKXiWKDUqfBBDq5hk2hT2gf0bN5DLxLGrUIIYBlS12DWjk7PMgVNduUrx00qKmuE12ihk7g5Y0ydHp4uwJvdTMQTxEYwFgoEblZIhzok8p9DrZb96FweNS0EkbgF4Krui//np+MobD9Eg+skiNeU0VxtOgvI444oiSbwEQQvi+Ay4AgigLSs2WTIYpTMQQJVbLZ9r188phyHPX4ZoacHpHjA6l7RwLIMtP8nMigyjg7AJIQrHf5pU1bO2ZS3bBWH91me51eG+Mpi3D3o/n2D8wKHKhkwBaIU1siXcxz/rzIV44yty6w3bViY01wA9Vbt5jaLBiSvrmUKA6PBGGa1UAQfs52lzys23eDlGziyiGdEwjGcaE7uXYkAFZZWtln3GZBBByDbZQfQRAFsgTbhbm6tdwyPXZieI+Dib2CNhTHZUdSehh0vwcY/03gDBBsqEgTYYcrTtteyLlwrij+2qAMImmc63kIkicEuI1upcnKqRg4fM2KamcWpbnroOCWrYPtVELY0IxUziMJmOMCeD1uTZgCIACrngsFhKlRE5Ylb6n3V8UQxYJr0AOCQXDK5hGGWrL3NBXixyooST6CsF1FKrTO7UJyAh9CD1Y4IAFQCCpiNflHfonaUbZLyvzvfH+5IyYQ4wg5sdazd76eu6EaZllMIyZ9Ukh8tIYAOCun4S2k/KkI573vOcVitr8n3T6qncHmABQ4QOG1AFxkl1TGyXvwJiizHNAkgTqviNELkC8o+qFJLKLSxiBg5O1Uq+zep0PWX+LyDTOknAlx0qujjHrM6xjPd87mXcMu/XvnAhMn79PC8nUeqHuB91gjum73z7kyR7kfIc4E0AhvWGs2SKgIqdpanOr9xvj3RtAmDA7422gndE3daJZ//J5AILFatEyhAyRQQcQ/PCeTZJQdLMGf5FFtdP31PRmbQDjwVl4oYdzFnvoYEZU/F9Gf/IwZsUchy4QAEH+gbYdwjIJIFAOFAHPTGIXyhDFZ9FOUhCUgMQkgMd1lCnFjWI01gkxTfM+plGNOz2G6/B86ydATSU9nhVwwKs1r4Qb6jEcYrCi6N2LQgfiGEzzAWAdOpdWKR964rnPfW4JGXjfaWeoBCRg2cS9xeeVVweo64+1hW0QDsOiucY8reUVtk8CL3Agx8CcTY7QJJZgiLzHkpP+J9nSWNERdVnjMcdNfge2RSgGK6Nt8umfz1IzL9PeM/lmmEbjRAfRGeQfUGuO04OcCCGcAIgwNENA77JybgBhCwlaOCaABTYJrbu1DxAkO03z+i1CR6jmqFRgIMcvhypK0aVlB3ad7w86Tq2CHBpD1kCUT7J8o+h9l21pfep3WYVkXHhm2s3WxRiMGHAei90FjAevi5FHDboui7qWuTYdNiO2i2XI+HrX/Ltf6bEfNhhTua3zfJi3bwEHdhflFNXUno9s69BC6O9ZoCsG1/jy1ilvnrey3XVRoXn7O9b1dmVIymWozak6xFAbpYRR9B/w1XdhyyQ05lpy5KHagUB+svJj+PtAoj4mvqbxJ83RZdfjEHnpu74ytMlrsjuA/s16HGP9xJEB7jG9HAPhjCRizvuM/hoHSOMExTHNPPV+kXV0ReboEBnP27dJcm8AYYJUTD4/6CRJPE7Gg976W+di6FBvKCfXZdvRJAWVrF+JhzyA0GHzZN2nD2NQ0LVHX8dmU/a0D3SCXGuvQX/6lO6QBT5G/4c8Z8g1QhjyTSB5XiP6P8mJSWwDDiwWoQ4hIDsUKGBjmOQuz8qilsQlB0GeBVqw79HW7x951lniYyzuIe++addkDkpOo7B5jFgan2ke9bR3rGVcM3b+bQ1gEP1bfpHE1XnW6SrkypjY2cRr5sFyNFIDxdzRZ15otsQmoQ5bJdZNh9XvbM2juM194U27Z2KIZnmnW73fdszjrB+/rV8gR1iF/jVW1lvW4qJjkYJGHAehLPZAaEfoqZ//segzJt3XBxG1np7nOWPokAYQpkjcJFfKWG2D448/vniMKXKRW1xj0Yp/HnLIIcVjlFtQG9YoNEwDhSOhRqxMzGxS/G7IBEhFr2W3Y02iqgJ6cghVvQWRMRTHhNT7mcKbHBKhWOVCyEOgTCWlyjQOa+R72eMMEqUKHKSKIlqWRxd5kINrJM2Jjdv+qq5C/dkK/S+qDIbMm73hGmvO/H/AAx5QvDlAO3kofcU65H1rsNtXqLxrjBHjygGI4R3S7qquUUsEzY3VxG7QIeab+SdXIEV8hAKAWX/DiqGpsxMoHiowIf+A/gKCzOtQ5rlm0feIjtqORE/jjkWwfuljCXx1RcFF34EsjDkZYquAJ2yS9V6D0TEM8TT9sGjflx2/PLcBhCkjYIKjGlHPDDuqWHIQ41grFehVhimmQQxbrCjUeZpGm9uawshkawqlVhuVoRNBv172speVfkDKfdpwaDuuS+a/35SF9+VFo229l7br0ApD6ZrkAzCmddGmsSblPO8w5rUAgIqXvLPINvQfYCdJMjUyzAEK1Q6FeGYUFQUlz0DiFKWrdkZ/y5zrAC+5DOSdzPtsx1vGextTHuvYFvlbRxgEspV3YB1ZF4t8pgGEsAjG3NrABmEqlgXli/SxvieVXf2Wx4Ttih7BGFDoYuXCX9av35ybOmfA/AMehFDpNvMvCYrk2C/ANm+fjZFcK/S/UIjwxdhGtN+nVJylGzF7dlg4UXWZY5atfboQM0FmwEFOmRxC8c8rt1y/CNCd9KwxZN4AwpRRNEgWi8km89yiS+UyBqH2oF0LBBiQfm0DSp+xsB1HtTKLWkywPwmGDqbnYCksfHvsczDQopMxBVMkP5kM+oHhoHgYf/2Mh8Jj82PR8GKETGTi2xoo+9a9k2pFLNq37b5PnNF7oXF5psYKkwAY1ZUvyaNWpIlxA1VABiWFUarzUWpDRKbaNCdOO+20AiQotBT02WQ2ZtVjJrfjwQ9+cEkeDjhlBBbdAjwNIFjf2pRBLjkQrQw4zhvGGFse5h1Ww1Y7XjNmw26aAJccFhcHhP4J1R45kaFdCcCw3ARbriUw1uzVUH006f3oKP3yOeqoo0qdhFWGZ9Jvv40XxtdaVoyNtx+mNn2or48DkPdwDZmRMxZQEqxxl3dA54Yd7oenxh7noe1lTI1/xtn71Sx28kcWAX4NIMwYCRMlW/F4kbY9ySGws6FfZjOGwoDIxpeVz4gq6sP7wEAw6CkTXD96yIKMYcFmUI4WXyr+DZ1QrssCQaGiJGWBWyiULoTMK8s+8hrIUJg8ZDFQSsZ9lKdrvJe92fo1LaFznj7uxLXeQ30GHgPPMQdioWeNtbCCcQrzQh4WqOQxiglVCzzx2MRCKRSfvsEPTU75nHLKKUX5oMwDPGujtRNyWOdnqvUvlGcNBmgHwA5ZQ/1324pBMB/MdevY3nPFeDB3O/1hgIEErGS2RwspkIf+WX+Jkef0QPPUDhzvooAS1hNzAAjTIX0DvogsIxfePNDrIwdHiG27AIJn2oEiJ8H70mnWI/2EUZHAWIdasj5zpoRcIzob+KIfsaTGvn8o07oAhK3mYq27E06OLho6vg0gDFjtFDpKDh1s8plE6Ct5BDxMhiMlgC1eRsYiRE1asCYXlG9L3CRwkEk6oCuFmradhxGnKOcFCCaK96EgeBG8Xkl2UL7+WUR1Vm0mmb9RxEmspITcm6OnKW6LkWFMwaMh77Nu13hHRsE4CxvxRCSDeSe/kyFNyXh/jIpcFb8p6NSil68SIOEdawXp7xQ2BuHkk08uAOH+97//hfapD13A6ya/VfdHQp2te0m6Mz/nVXqTgHkfxOX/AfvWBuZuUtnsVb/zpPZzDoIaIoA6XSN5Vv/opDB5AL0fTCgW1HXeBUNo3acGx5iUOR2oLow2JW6vGiBEPvU70MFCeN6ZrqOvyCdVMmsnxpp3vbCNMI3/W+vCxWquhI2ZJqOdXKvJgxP6pbeMb5zAMAne1ZyI09dPPt9q/jaAMHB1J74MKEDvJh4DwWBm+x2ln1iogj5ABKbBZEslvkVonrqLFrsQAIN15JFHLhRisAh4r5QG6lQxn1rJ1oYtkyyhhj5dlwmKMRF3RMXf9a53LQvRwtrJxTNwaCdeliOXvZddKkAhGi/5BAwHReIjvEIxA0hYg9B9NWVbPyRMkLDO05/+9BJeEJLQzrR7lnmXveHeyEW4z558xi37z5eZY9MYhMjM/AYSKV6hNGtlXT5kkjAokGCumqfWYGRjvdJL3gNo0H+MWBKNVxHOoqOcjeKZAAIju0oGoT8eAY1kQ0djTehrjEKdixFDmm3WZEVnk4/1HEZvVt+XmX+LzKW8n3HF4LJHGA8ggS3ixCSh1rx1nfHG7hp/Nok9ShJmAwiLjMKUe+L9mXiEn8FK/Cc1uw2AhVqfwjfGYoTOAQSUomzdeXIQEqPjGcuLgPJNGBOqTvLqU1NDF4CEJ9Qe8AJ4WGhD7x1xiEZpKkwLuQALxjshpGzt9H9KBWgIddkPD0x6/wAECbBPe9rTCnvggKgGECYPXehR32K9KHsJoj7L5gTMAgienTMb7Fhh7Nbxw8iZo4xEzaqEsfSbrDguCZWt6j305W53u9segICin2VkV9UX7eqPNQy4+LfwaI4B1y8yoav95tTkfIShfdoOHaff+hXnzRrAciah3HfZfg3Y0EfuAYqEP70zhsHYY52FlgCFWbtMGoMwdBb8/+sMUCZ7BiuGP9R8irVkH21/b/Gcj7zQ5QEIDLvM6nkAggkjTPKKV7yihD0URqFMLI54w0HV8/QxShpgUs9ebFRCplyJTT47IrJIjYi8S22wkpNQe/5DKG/KSl39pz71qQUg3Pe+913LA4LmmQerurYGrMIywlpo8rBbyzx3KEDgnQsxSMpdx09AQXRQ5uBOGGYeKzBF/x133HElhr8T/ajHKYCfXFKq2/eh27Omfd9PQJ813tsBENIHekPtCqdYYg3of9tdMWqplElfZW3EmWE31GaxrVXeioR7O7WAhUkFt/K8BhBmjf4c32eS9SfYmBNoUYBgokCdMpehTgmOaKd4FvV2oFohD3l9ACFgCFJ3TgGwIJM5B4oMaWedr4kCTh9rhTKp37PGvAGE+UY7cxLrQsFhEPoAYZbMtxqnaeyeZ/C+xLGFztYVIOTd4rTspEFeJ4CQeZNwzE5vU51v1v9vRdnUujC2ck6AZEZdATbgoC7iVzuvAUIJa2MLhJWFozC95rUdLJLL+wxoAwjzjtSaXL8oQEAvyRGACFVMu+Utb3mhJLo+2l70dU1iMXtIVaKebOZQYzuptBZ9n63u2wpIzTJWDSDMNyKRtYI1dgWJp5pP9ZyaJfNFAEISlNG0chDWNcQwnzRXe/U6AYTVvunqW88WRXljcg04X/IkFL9i1IVFsjayHjAINbutl/XaMD525p1//vnFaQR67bADuvs70BqDsPoxHvUJiwIE9JLiMhImc3Z63bF6As3LIPRfUB8BBD8nnXRSYREg4U3d/jhrACfJa5axagBhllQnf2//PxZMZnzKDOfKWTJfFCBI/DN/eVvrlKS4mARXf1cDCOPJmKG3w0JtFp6/bZfCt9jfPouZHKkwa7VeqtdGGIkc1GV7NpAg7NA/mKwBhPHGcltaWgQgQKFvfetbSwU6RT8kqNRxuD7CXBYgQLK2eTqYSmzd5NPmsgll2yLgBR7Sl9cQQ9UAwgKC7rruXe96V6kdkRMypynBoa1Py0GIkuWNyXmw/df2Yom37bO1BDYZICSUWIcmtkour3OPVjEvkjem+JpcscMOO2zPDpQUSaqfm3lbg4W+fjenE1KwQ0fOmLovchJudatbXUhP277uVFqJ2ArzLVO5d0z5XOQ7y1qpMXuzRm2J8dvFkCTFIXUQZDdLTJTRKnEQSkxxmVW8msnpWeJckslseZpn7+0q+rRubTaAsNiIyAV44AMfWKh+zFSdBDsEmPWfuhVA0DYvCw2r7gJwvQ6FkhaT3PbdtekAoZ9vxCnLEeNxdMyN0Pv+Vte3WWQeThsdBlpFRwmIaldgEHIC5DLMWe7ltAmfqS8CLNjZJnyXdeX5Z599dtlh1QDC9q2hhZ+0CEDgATkm1h59h7xkW+MqcwIsKCyCeLF6Detw0M3CQl/BjQ0gLCZUcnvSk55U4rF24lBcyyjKaQAhu5XsXlBZzzZUCWFjKv/FJLD+dwUgcELsYtjuOgjLSIixT7E0FVLpToaT3q23gtNn5p7aJ/lx76xtg/P0zfPU/ZCYKJeLM5hk8GVzb+p+AAm2TGKZARBAOIW2WohhnhFbg2sXAQjoI9nfslVTt90iHnOS9UVjsUiEgUwPP/zwgrZXCUjWYGjm6kIDCHOJa8/FlLfKlSeccEKpt+HHp7+jYWjrkwBCYrtAgrXjGjVH7DNvAGG2ZOkWdRCyzXFTAIJxx7ZamzxnOVQMpPfBVqHX6TA7tOSl0MW2F5qDjoF2DbAwFlvqueY5Y22Lrfb1rX8A1TJzUl+1552U3bdDyBbVbJ9XjVKIoTEIs+f9WlyxCECQhKLATAospahTPbGWmWTTBAOBQ8C2O4rdrusWo/qgn2T/1rHFVQCbBhAWX05kd8wxx5Qqcnbk2C0z9mFN1oP95srvOpFQgqK/7a15NIuPxoXvtG5Q8jmLwTitO0DIGTMqLir2BoBiDSTC3vjGNy7AgO5K3D7vKHnQHLEbQCjK+SCuT6XCRdiE6B16CHPlMDfHz9eHTtWVbpcdt+h9YM72d8mQ8hCUzPddAwjLSnib718EIEDDQgyqGzo0KgksqwYItua89KUvLWcNAAjrWjRJOGSrvo3lEdRTpQGExRZOFKgtu7Z8qTGPesVQLaI4pzEIPEmGQsld4ICRWwWIXkwK630Xb9Sa9wEQtusshkWlYv0r363IG/2aQ+voSkY+P2GWsp0wBzwBCpwwuSpK8Uv2cxAWxmleQJln0A8SculuHj1wklMm4+At+r79+zKv5Y3JVdNvITUfIWIMApDUchDGkvgK21kEIExiEBbJvJ/ntbQv+QVAMNko2nUDCCmbDcjUB53kPRUjkZQm0TLnK8wjg62ubQBhcUnmcB2nbsrAlmEtHyGKrp9kttWT+iDZvcZGTNZaQ+1iECjoRcMYi7/pZt5JTk4n9ftBD3pQOcBsFSzcGNIx1h/60IfKEe3GWH0B9DpKnb4yB+gBcy7VZuMwAAg5vE476HlGXX4MkOC4d7UF5gGW0ctKQSuIpB92z6Q6YrYojvHudRv66JnyEOjChzzkIQXcJAehAYSxJb6i9hYBCKgjk812Q5RsDpfKUbDzTOBZr2UCM7zalnFua+VDH/rQC51UOKuNVXwfo4FKy9G3ciSgZqjfD2q0rtVAEVigFrkFQnEADAyS75LQtEjopAGE5UY5hyi9/e1vL0yCcXL6XmrQD6m5kUTEeGTmhpCCOeFMAzt+lCOvT/Bcrte7427rC3CjC2ypxu6MqWPGkGK2CGKJzjzzzLJDQPE4zkAOuqqfE8++Dj1GpwQwmE90CCZCuwoaoeud+jsPQNKuHIcTTzyxJJULW9Cn0zb2jbXhj0wklnMo5Y3Ray3EMMZs28Y25gUIkCeF9/KXv7wYOYsgCq9fbWuM18ieYTTjRz/60YKmTbZ5FsgY/ei3kZrkqGNZwZCyf0swsmVUHJtRST+TsMRQyKXgZZAb6tCidbTzVvujZ71DAwizJDT7ewpN6Vjni5x66qkFuNmOOPQU0Wz1TcElxcQkJQpbYL1Q40lM2+n5O1sa63NFTjplaCcZ23XoKf0k50Dytt1dvPSULE7/akYqf5tmjKML6Blrm44BXoUpFjlnRdhCgqLqnQ7mq3dQ9OU3FkDwDMWY6DrnwwDdDSCsw2ydow/zAgRK1IR94xvfWA73sBBi3DLpVoHulVv2TMk1ObRpFc8ZKjoyEE8DDFCB4tZ2dNjWk/3MNTjIgo/8oGrGw732JKtmdrWrXW0P2Braj1zXAMK8Evvu6wP6UKISxdTdoPQliRlXY1iXY67nX5QqcAAAGltrCzXsBy0eZmgZILj8W25eC3Wsfh17DxgyhMp2W9/odKDQ+NdjPQ9AyHuGWeR8vOc97ykGVpKhcxPmAZkAAgYBuKCvzfVp+nMsgEAuHDoMyL3vfe+ya6LlIKzjDN6iT/MCBE2ZQAba6YG8IhO2jmWNbbi1Z4sQdM6zk/SySEbvskOTheNQEmj+vPPO25N0RiGIHyYkUlOHfWrR+6T6mAXEEKFQbX1Tw3yRd2sAYdnR/b/767itvASlmAE544LmFRpi7HMmCGWLGXKNTHGKmwIXf8YmYSLaZ++UgLli7F//+td3ynYrDGQNpxDSVonb8xpiazwg4dBDDy26Z4iuSP4WgGC7KGdm0rP7f5u3f/0RBpawaBIjAQThVDkISvT7d0tS3IA1sShAEGaQjZpqWXYVJOkmuxrGeH2UomfYLsObe+ITn1hKhO6UFybx5nWve11hDoQHsBn6UydMDllYFjbZ5/2wI0CX/Areao74HpqI2QDCGLPtwiAhSp4BYPgpOrFgYYiwCe6gCI2n8IGjiOXm8NKEkMY8mn3cN9yc1uZJEt3Ot4oXLieLLkT/AwechRzpXven7zgN0RP1/XSBZFf5X86/4ZgN+XiOOfu0pz2tsFkKdNU7dNKPsQECRhkgIJ/73e9+RUdiTgGEVgdhyMitwTWLAIRk6ytaZDsP+tSETcGNsbfNoGsxCIqIeE62+ozNVMwaDguIkZB/wXu0zRMwshDmofvCwiQZidwkEUmOA0BkbGNJ5klWbABh1ugt/j3ZGmNjI3wgccyY+Zu1YD4CCMbLuDEQObIcq8RYzLs9bfHe7n13rjNA0Ld3v/vdhWWSgJr6ApN007IAwRwTagUQ6EJbP4cAUH3Eep511lllyyWnpgYIda2WSWGzRWeUvIwPfOADpc8Pe9jDSjMAzjnnnNPOYlhUqNt936IAwaTjVaHHJdBIQkG95pTFRfaQ593rM+htbUTdUb7oO1nB280eeCcLUZlUYQ5IWCYwj4EcFj2HogZS2lckRX0Ji9+WJl7oUMPSAMLqVk5toOJlJV/BU/ssT3975LoauNVJbH1bzliMMSZZ+7Y08tA5DMJJte4bM8QAbMpFkB8j5+GII44oiZBDHCX3YSkZa2GGJJYnv2NeNmPaCEdfAdC2e7/tbW8r4Nl5J/qJQcC2yNNqIYb1XSd7erYIQMikMglQSKoqSkBR7cwkjte06KSjcBlPHpsEFwsCdadyY5TxkEUxlvh5jN4FGMJk2GqU7Z2LvmOfevS+nqM4yrnnnlsSHikc3uiQTwMIQ6TUrtnNErBWebU+1pvdKct8tCf5T/6BnQsqH/Y/YwIEbQt7ASN0LqbRQUhD2EtODCYW+6BQkvsSxow+X0YWuTehFXpaaEHdmuhuwKmFGMaQ8ja2sShA0EUTK4MuAUZ8a999991zMEdyEuZ9ndQnV/NACEOszXbKev/zdgGEvCP24BnPeEbJaEcljrkXmwyzz54CO+OMM8q5Ew6mkeQ25NMAwhAptWt2swSsEfpEPRV1CuwaWuZj3cob4sTIO1GfYKvdAcuGGKJz/aaLbnKTmxSdO6RGBz0mjOk+u6Y4WzlqOUWTIotldKv3TxEooRdMRw6GqgFCK5S0zMzbxnsXAQjpHuodUoRqZauafPb/m7g8bAg9e5izPaym35LcpT1o1sRKvQN70d2LytceKi1INxN4mYk8VMT6oM92GaDo7nrXu5Z9xAlzTOrDvKxCdjUkJ8EhJ1gThXr233//PZnKW3kKDSAMHdF23bpKIIWmYghz0mBycXI+Rj/kY/0kDyiAntHsr0PbV20TRH0rdW1HSq7ph4XSh+RVTdotoD9YRZ45BybbvbdiEerv5tETSYoNu/qCF7ygJEcr242xHaIL6TLhkAsuuKDkLwhlhh0dwkIMmTfRZZgCslE11E9ATAsxDJHiGl2zDEDIIsqC5fXa+ifTm+eLcpOR75MJXtNZJrvFn2qEqm4pLaqdVCJTeCh1BaIEtjLOY4vWM+2eEFrQD5M9z5+2w2CehT9JmQitKC4ioQeNeIlLXKJcttWOhgYQxh751t4sCfTn+RAj1W8zCbp2KgmnmeOcBbF87fs7z5fHmXAbY8OwYQLoD86DexhK1/tOPlSYSM9gTCXqCQmaZrS9AAAgAElEQVQIh4rBWzMpfWzNucZ3nmvnCirfNcIHYQzrdwRohAPph+QM+b6Wy1YymVdP1CDBc72Xwkf6PdTAO25ceMK9Toy060Y/ht4/a04YP2yrs020q+4C+eUjyVsOgvFtOQizpLkG3y8LEPIKQf+yvGWuMnAWnSx/yXzQugTDvpFTktj+cfUAlKU1UcXfTVyG0eQPEAl9F097O8RnkqvgaD88NsOODQk/W+0wmHfh998jhVfUWlC73zMDsqa9cwMI2zEb2jOswX7F1BiXeQECtlDODaOObWSQ/V8NCWufMWeos11OaI+xYZA5EYCCeyX30hmocwyB5GnrBpvJILlWm9pzeBBG0m4DFLj2Peu9731viZVb4xgG27iBDmwexlC1037OwjSAMHSWzKsnYsjJ2Y4n/dtvv/2KsR0qe3oCOxsGwtkW5DZvX6a9I3tCrkIvTnAkt1rnN4AwdHasyXVjAYSwCH5D8FgESSoWGrRqEpuI2YXgOjsULFALkpKx+MUFU1xmKw996IIYQ8zCCwqUWIyKkzDgAEL/HPU8a9nFRha8I/UWxBhvcIMbzCwx2wDCGCPd2pglgXjdvPHkziQxOYXCagA/LQTH6AujAQXWPSOdbdOPfOQjC2sgJCCZznMYROE2LIL76AZhTPF/3rQseWsTqHZs9yMe8YiyRtVP0dcDDjigAIvnPve53SGHHFIYBgl7vlM4yE4s2/+ckwJwYBKEDFDyWExr3979+qNftjeqKCtx2fXzOC/z6ok6AVDyH5kpxtXv17QxDLCjb8mFEQd+JEPTzcZq2u6zOgSjfeAkO3kSajZenKmER3O4lPfUd4CuAYRZK2zNvh8LIPRfy6QwcSx0rAJFwPOuDwkxYVB3wIMFafGjC7PIptFedQxy1eL0rNe+9rVFER122GF70HodKpn07sv0i2IDnuQ8SHy63e1udyEPYZLSbQBhGYm3e4dKwJqWb6QWCNZP0i7DiCUU0+a1J1RgjfRBfowcqvvkk08uoUReu/V/yimnFDbx6KOPLuBYm/vss08xLp7FeAPqrmHUhC9PO+20sk4e+9jHFoDwkpe8pDgcRx11VGEX0NkcDqXMOS3i77L4GcSzzz67gHxG1v/pJu1jLTEOdmh5V3F+DGifNWQg0yYQrwbGLKavlvO8AEFfE4JRUZbcgKR+DsIs50m/6RcJhBKi9R2A0k7yPibptIwnvUxWqcFA92CDhBUwLmQnsZzM+uPfchCGrrQ1uW5VAMHrmVCZ1P4NIGQCmsQ5zMiEExNM3fEsnLHiYsuImnLivUDGin1YRFuBg7z3os/MIsSsWGwAVAMIi0qz3Te2BKwHXrecHDQ1L9Sc5cUCB354towDZoDxBSDysf6tfZ4+KpohwRryPtHdjB6DZQcTD9R3uYfhZ9AAgxwSB0wwVo9+9KNLvoAqfYoBMerAgNDgPe5xjwIuAH3PlmjM68cgCE24Fqix3rARKqQCJ94TAAIwkqTYz0HAkMq78r76ukoGISFWzpZiQ+L72I/kREXGswCC6+hlRp23T0YAkgqL3jWVauu5UzMIYQ7oQnoKU2x3iBAxxtOODnKbtLuiAYSxV+SK21s1QKhpsf6r1LHMfqLMdrIEW4nYQhK3RI1JqqEAsi2oXoj1v+f1DPpehbaEaaJ8AYTaM2kMwooXRWt+qgQyt60BBv6YY44pBoKRjmdpXQMKttIdf/zxxXhmzuZAN947A8Oz95G3dOyxx3ZPecpTiuHSpoI+DA0dZR0KuzGMDLq8HAyBEr4YAYfGia0DAdaLsAAWQj6CcINcJ4BGbpNwQCh24AGL4RkMPZDA8Lo/hpTzMmmnQPIx0P3a91zJlJHRLB02r57gjQNSwiFyLZRlJ+d+O0MBgvHSJsP++7//+yUcDCTI0QASsLkpqJTwQ5Iw5ZfJ7dAXMnMfuQGH2k1xuX5fGkDYMOWySoCwYaKY2F1KgKKhwJzSxqNPid1M/iELcqgstGVR8pbkPvDCKLQGEIZKsF23agnEIDFWvE9Gm5HgwVsvqHhz9sgjjyzG15zOEdjZJ8/TBwIksfkweACHMB6jJfaPPueVAwypMYBaz5HqPHxb6dzj0Dj3SI52RDePmFfr2UCAsAQKXOKcLY6u5eECIYm/e4fTTz+9PEv/MZ4SE+3GSpw/7x5DSRfQDYCJMvDCLLXjM82J8M6LAARGnLz1US5FtnMuo4v0A8BjvDE3EkWNFzlL5vRvY5KTaIEhSZ2e6RpsDuaB3vK3rXZbNYCw6tU5cvsNIMwWqEWDUj344IOLwU5thHnoxNlP+d8rssCURPVMyonCqz+NQRgqzXbdqiSQHCN0t/CbEuQOMGNE5BMwGnYwMTAMPU+XMbN2GF2MHAAs/MDYAQHi/QADut93dh1gEDAQfsS8PSNbIrEDttQJM/B2P/zhDxcjFwBh27R+Xvva1y45UMAD5sEa9nxeMrCgXUZNXF6iJCMseU9YQrhComTqD/TZAf+X/IidACIwIrzonOpaG8v+up0XILifrPVRaMaW62lgZJ5xT30JYyNfjEyFDrK7JCFVv/M8MiNHP8bTuyckvFVouCUpzjMya3BtAwizB4EnQmGJj/JU0P8W6ypzJCRlqWNua5eCSfFYaiah7nlLUpw9ju2KcSUQip1hUSxI2IA3zbiq38HDZ6QxDVe5ylVKbN/v1D7xfdgFFD7amrFhVBmtxNwZI/e41jy3/oAJpxOiwz3LWswBWq5zj/8zainChhEACni6+uyTpL8YSYbRPcBMQIF/hzKvAYL7U2tBciNWRN6ENZu+b8X8zQMQXAsQqRNDFsIsdoSNARDIomZ40q+EgyJX75rERLKJfGo2pJ8P0Z9xmCKJo+00x3HX4spaawBhtmhRblgEaJlCmnR645hhhtB9kqzEWHlk/UXY73UDCLPHsV2xOgkw2owkJgFlr0w4A8KgOauAkeXJAwnxPOvKiXW53xiZSfQ840VnWRue4ZA4SYcM11Z5QDF6tTGsvftJiccMYvpYH8jWB+vutSPgpJNOKqyDkAcDaE3WeQhb6YhpYME9ZMdISyhE7U+qLzDNcVjdiH93y7NyLtxhZ0g77nk7R2XJZzWAMFuAPA90P6UkZkkJZMfF7Lvnu0K7lA1li2q9973vfaGT1xqDMJ8829XbJwG6BMUvNIBtS6l1zIDtgCqD2j0A8DJydhAk+a+mryd53TGuDLYtkpgKSYXq/NsK2c+Yn+Wd+966xm5gDfz2N4YdwME06FsNzCPJSYZeW+onSFjUjh0Ztm8z7EPyA6b1N8wIz1ueg62U3pkMAZw6J2L7Rnr+JwU8AAgYhItd7GKtkuL8Ytz+OxpA2FrmPA7Kh9GWwMQDksAk5tk/5GSM0dOmPeZijYq/UKK1x9IAwhhSbm2sQgI5pAfDxrjGA2cc/JsRFa8HFgAJVD9WQY4CMNwvsNRnEJJMx+gy6sACQ87Y9MN9fYMb5kGMXea9Ykq5v87UT/E269uOB+tdHkJ97PqkXIIcc09PPPnJTy5hFmGAuq5Lfx3XY9Dvb671W96FMKc8DGwJBmZMxnIVc6HfZt4vDEIDCNsh9RGe0QDC1kIM9Uj5oU8lQqH9s3Ure4KXGQqLPTFX7dlyJDnr0EMPLWxF34tpSYrLSLvduyoJ1PH5mm6u/52tkBLhsGRye3jCkhol+PG6E99OP/ttZT1MCkFMejfhDwl3GAe7HhhY2/IkKIrjYzoSorAOxfqBCHS+PAksXkoG10zFJIOfIkRqpmjL1j+JmhIXgQj6NltCU3gpcksSJxn5t/wNO6iAGTskJCYyrLPi/Ksa3zHabQzCGFLcxjYaQBgubLSmokkKtaBQ7XmOlzSJihzaMgVBKfKwKDD7ve2ptsWL8prkXfTbbjkIQ6Xdrlu1BCbF8+tnMnAMqXkuXIA+59kDw3YM2Cpod0M8+1n5BdNYNX9njG1xtIXSfn/G2i4HIAFNHyNvHeuDbcyMs10PQAwmTwKm4k12E1nzddGkem3mvTEcAAZnQrhFWMCODpUeMSUpRFSzHqmv4rl2UQhXyH2yu8NzJUdrI3kTm8YgZPxbDsKqV9/I7TeAMFygZCVZ0eKnZCxcSqauAFkrx/4inkYxJltYOecXvehFJclJaCH0ZAMIw8eoXbkeEugbzmm9YsDF/9X9kOPDKJr3DLktiYxqv7LfpHj9JIPpOkb+Na95TWkfSyFskDMj3GPtAdf29ovxy2fgACQnwt+tS0yHUIgywtZ8dlVMAwgAkDLztvXJvQgAwjwKWQSIkItr9cH1tjcDNPpGBwhVODcCMEjl2a0A0XqM/vReNICw7iPU618DCMMHjDLgEcjKVlQFi0BhWLiUmu/7RZT6cVXKINu4AizQn5SIojMU433uc589paeH9q4xCBeWVN+L3TRaNgbKW62i3sbQebXq6+pdAuh823vVK5DMCBwwkjxnHn+2R9aGclqSnnUoOdIuCmtVVcecW5AaBTx9bTHewh0OcnrMYx5TSgVn+6AwAWbPoUxAgtoDtjImZyLyqYFCHAF/8wzMhZwLoQJr3SfVGcNyCIP4AC9AAZAizJhcjjrM0gDC+LPyIt+ZBDvHf87GtdgAwnxDRmHwchhzCVeSrFSLi8KYxCDEu0koIdsktSXZivLg5SgY8+AHP7hkUc/7aQDhfyVWG4zkh/Rj1ZtKz847JzbtemMXRkGZcXVAGHletxwA4Qe7DLIXf5ahtE6VSXefXRPyAOo8CevQ84ASxt+hT4961KMK6M8niZeMvB0KwAQAn9ok0wBCLXvzMLkHwIY1LxkScxIAKHShf3IwACEOh/ecZrY2dQ43BmHDVmUDCPMNWFgCnoBwg8QnHo76CA54kURUJx/VCikAIV6JWuboS5nPvBYFVuqDbebpWQMI/yetULb16Xs1g7AJypXnWZ9jUmfRzzMvNvlaxhSbgAVQlllVUcmFKPeUR96KGQIwMHO2JqvkWMf8w9AIQWhb/gNwAKADI/UughRcEi4AOK5zneuU0yT7dRQi60XmVxyLJCxru3Ys+uO4yDPWYS40gLAOozBHHxpAmENY1aWUN5DA+8gZ9GKLPAtJVjwC3kDNKDDiQhTioRIeMRBoVHFPio/XMClvYUgPdwNAmEYnRz6AQRLEgC8GJUfOblUffoh8t/sadLssep8k1m13H3b6eTm3QaJeQnAMujHNLgSxfJ9+HQTrMzUJGHNrsWYczCUyxlSg8YEORZfk/wQg9NkBXr9dBYCG7YYSiOf9JFTQDxlop2a8Vlmldd4+j3l9AwhjSnMb2moAYTEhJ75oUaNBhQkYfMqMsWboEzuO0a+3RAIQtlhhHVCgFFyUXJ3MONRT2NsBQu1hTfLUwuzwOl/4wheWzPgDDzyw5InUVO20RNEhMp8EUCZRwEPHbKuZZx7ltD5b3ISydtsnY2r8xOhl90vgw7ilfDPmzvcpalQbdecjMOLCC0ITdVli68U2QrsGHDQEaGAP/Eg+zs6J2pBb50CbMINiRTVDtdvGZtH3bQBhUcnt0H0AAoQtMeaII44o54u3z/wSoNApMeyAfdTijIxVXZMdAAAM0KO8oMQZ65Kuk4zfkN7sVoDAU8QaJC5N3mr0MyaOAbbXPSfRxYOMd5btdhmjPl3dTzzL9zE0tUfaH6N+kuSkMQyQyO+68Jb5c9BBBxVPGUVuq9xu+wSE1+cEyBvgyWOIjINCRsZ+0lbIPkCow33YA0DSugHQ5SKccsopRdaOjpYUmUqFmS81QFAboc9a7LbxWeR9G0BYRGo7eA/DJvbNk334wx/eAMIcY0Gh1wY9hj6GJx5QFFOyr/uAIAZnGVpxbwQISVqjzOPJeU8gSxY4QObHVrQAL0r8hBNOKAaVsgfCKH9j5TuepDyRhCOAuIyTa4A3v7XJ6LiOd+lHOwy3ZzJUaOskzQUsaAvotq78OwBGDJzX6zvb9nzq/niWd8thQfbfq9ypGh8mZDcao8jPb2ujD+zy90lAjdzVLCFv+s38qFkispc/ZJz93dgqhAYckLeE4QCTADg1G171qleVcb/73e/eGIQ5dGUubQBhAaHt5C0BCPb11wBhDJp0J99rtz17bwQIjDA617bSGFX/V+oapcy4MwTCO8I1mDC08RlnnNHtv//+JRsdk6Agjy1jstQxZbapMRBOBDT/ZY8rZwsMKFClXVQyWl/BmpTb5bW6Xl9y5K7TCVM4x/3AAyWI1UBv22KnDWtL4RyGP+Wz5a7wXvUVkLG1zztrX/xcu8ILtuftxiTFrOFshfT/HJo0RD8pT2wcVSCUxwFgJBdFm4CncQIOjJsxcjKkEENqkLjOmLjOWMpBMEdUfawTCXebvln0fRtAWFRyO3QfhXenO92pMAcNIOzQIIzw2L0RIBCLcA0quPbuxYwll0kGRQUztAACQ6tini2o97znPQsYYCQYakV31Mi3JZXRBSqACcbAzhGxZ23su+++xaDLgH/iE59YQARwoYiN+LdCOzxXJ9LZ7ub/Md6MjH7Z7w4E8EDR1mLmL37xiwuocOiX5En9Bkp87nGPe5T25bBIkPM5/vjji+fLEG1i7f0RpvSeJhhn8sEaxXAPqQ1BnuQOABrX7Hyo+xYmyd/MAWEdwDBAIluStSVkgQUCIjAMQ/owphz2hrYaQNiwUQQQKExb9X7v936vAIUh6HzDXnOv7y4qlSEVf3dWBOOF/t7kD8OgzK3qkkCBeDyvWgIiTxxDwPujdPxbaepzzz237C7Zb7/9CrhwrTK1DIHtcgcccEBpg6FmOFTX08bBBx9c8hWsBUb+7LPP7o499tjieUpkY2iy4wQAEXLAWPhb1osqePbT+5ttq4AG2hpAcTTxmWeeWbbt8WitN4V5ABb5KECF+wAWQMTRwQ95yENKnybtbtnkcZ237+aBA8yARONl3GZ57+5hzAE9MpeoaEyMRc1IJIwB5H3wgx8soVbhoHw8E/i2vREQNea3uc1t9oxJ05XzjWYDCPPJa8evZljE3SinI488snhd7bP+Euhnz4td83BOPfXU7pBDDimHxORgl/V/m8k9TByZYRfz5XnzJAEh3htWgNcv3CDnQCiBDNTNR8srPiVu7P+8R4BJQSvsAa9edT0Uv1g1Sh+oYkQAjHPOOacAg2OOOaZ49s9//vMLWLAllfEBpO2drxMbGXx76iVH8jCFNNDSYtpAwMknn1yMHHYDINC/Rz/60aUWhsQ71yUWDiQ87nGPK+/lnv4hQZs6pov0m46yBZEcjjrqqDIOQ3IycnASpgbQNAYqISqVnHLL2UqZnS51IqrnCiupd2J78g1veMMSbjKX6nyIRd5pt97TAMKGjTwGgbeFRnUCmf3AdfLPhr3O6N3dbg9h0ra5SS9VX0dZobd52s94xjOKNwwg5DCp0YWyjQ3yvClx9C+qnZd+1llnFcPJ2+ZNMtgSx3jvjL3tgQAvFsC9Ev2AA14nAwxwqIyHTjb/GWmMAJlph8eOfXj6059e2vJvHiwDgWFIoqQ2a5pZO4CadlyDPfBMbdi//+pXv7oYGFvzjBWQ4hnGDH0OIMhDeOYzn1mMoPUI0PRrOGz3nNzG4Z74KHPbnPY5+uiju+R9DOmXdQLoyUVwzLRxdj9HiM4L0KhlbOyMOVChOJJchTAQwkZ1MvFuG4shMt/qmgYQlpXgNt9PQaJdKUWLQDyWEh1qqLa5u9v+uHkVQH+r3KwO13IesjUu7dX3JdtajJtXysuiUDc9xOAdsSHYgGSNM+wYBF69v/PkgQTzV4Y5GlhoANBlkF2HeUAb8/xcC0jIP0i8n4FmuBl/RpuniZnQHnaNgZC/ICwgQY3BEhro5waceOKJhUGQBMmIqN+PoXBs9/nnn1++kyfBgwUMeMR2XHi+ZErerW2ynosd4TVjKfre8rxzctYcXPfvGWzbCgMQnFMwhEGo30u4QZKo8JB5BUCSbQ5OypZk32FzzBsgwTXGDJiYVPdgt43FsnMlxz3TTULaAPA6fNpZDBNGwWKg7AwUpJxsbJfGAPX3aq/DYG5nHxYBStuhNOp+ZR+4mDeaXfwajZ3M/+2U11jP8n4MMyOvtG2YLX8XIgCGvDdDnRP6JCRiGBh6QIA8GGZb2SQ0ShwEFNDGchAofPkJwAKjzatUGdMzrAXxaglrGAon/QlXCNvYRcHA8PrrcRDrliQJZPNShRG0AchIdvTRXx+xceODTZAnIf6NvfC9HAhgRl4FKjxFtyLben5tx1wba0wXbYf8zWdskJCPXJN5K2NmKyuGx/hbJ8AYBynhBe0nP8H4YnEACOMy7/MWfde9/T5z/VnPelZhcjgyDSCs+YhbOMr+Qs3ZE94AwoUHbV6QsB1Ku+5TTqdjdMRLZd8rBTuvl7VuU7VmsmoqX2Y5Re+TY3NTb4DsKXwy8eM6sWSyYJCBAkaAYXAt5S/ngLH3nb97rt9CNMma1wZD5V5/015/XqROgnb1K5UzgQT361fuS70DAEDf0x8KM9fWhxLV4GC3AQRyVbmQnAAEoG5eg90fK4wCOcotMK4+xt94mBN+b/r6Wbf1rD8cUQDBGuKYAuzGZjt05lbyaAzCBOlkf299pOiWQrzIRdZxzq20T/OCA53Zjsle98vzMEHPec5zSvz68Y9/fMm29lmm+NJKBTugcfMz4Ke/pSzGN9XuGI+6pLL/18dqux9Vba7HS4zBj9FOG67NQUk5kjvjmnb788L/44EajxiwhJyyXS7t5dp+Nr7rPWNS8Szf1cp03nDWAJGv5SUBCGQoB8HOjv58mLVOI7esh1zfB24Zl4QT6mJos9b2dqz7tRyggZ0in+QgANCS4oXyGkAYKMDtvixKrSXdbLfkx38e4yfzXmxbXFvsfNZWsPF7sfoWo9j7hjJPzt/rcsgBSvmub0xmKfZZxqd+9qR+xbDHwAxViGE+UoLZbywfgwnoxMs1zkCOd/YdNmTWO61+pMZ7grktp0aoSD6HvI4wRJ5CnvVPnhwAVQOpjEUdTqhBZgoxhT3oA4S67Ty7P/7jvfnmttSff2yMeSk8qNiUEI4k3GwpzRrbqXnbGIQpc21eZbm5U3bv7jklqngPgIBBsDNlXhp2EyQ0CSDUnl09n/uGOMpnEWU0D0joG5FJcp2kCDEaqfbn37LvhR4kZkqYS+U/bFGuQ9UKhagTYWdHwMHeNPaYA1tQ5ZhIJgWM6sqSZOmaScBrWjgmLE2ARpibMEeRX5+pm8Qi1HNyE9bQdvYxsgnzBsAKZ0sQloRbA4SdAgdlTL8zdIVvp/TW4FlDvZk16GrrwhYS2C0Aoc8UbDUp6rnd//ckRb9VWzzOWQpsHrA9qS33M3RYAsmSsu79m9GXmyA2nkI/AIRrsyUP26D2gh0bEi5lic/q76YsKIDo8MMP7/7oj/6obG2VwMmA18wnWdSsUZ81qNkEcg5AqMsv52+uDQDpA84++OszVc3M/N+syvzzO4wNZgaolXgsudjcXodPAwjrMAqtDyuTAEMhB+GpT31qCTFgEHZz/f4xBZ1QnDYT+65DGQEPtUIc+vzaiGvTWROSTe3ZZ+ivetWrlh0Y2e7o+TxoRpOyZRgxC2K7CgL53u4Huy9SWnjTgQKv8xGPeERhUQAFO0T6AGFew5yQxG7J4xg6H1d5XcbIHDV310k/NYCwypFvbe+4BBpAWN0QxJgkeVE1R9ToJAUX4DDUYNVhD4ZeVUXlolV0vPnNb76n6l8ocOGGz33ucwUg2E5paybAwIjahqkAkwx9AMH9k84fWJ2kVtMytgRA8O4y34GmTU6+XY2UWqvLSKABhGWk1+5dewk0gLDaIYrhVwL5tNNOKweb8fAT+/b0+jjvujeTwELfq0dvK8usSJIzJ5zXIJMeCAlFKydBSWgAAmuBolVhUmGnsAm2T/oem6CUdE6KXK10Vtt6AwirlW9rveUgtDmwl0ugAYT5Bjhx6HqnR007ZytkbcgZcfvmFWlSUdFWLUWWeO+K6ggDTPNs03bCFP3eKqrE+9eGHSj9EsvYBWWYFVRywqPnyEfAIiQzP1tCAYnzzjuvVJU84ogjSvGlTQ4zNIAw39xuV88vgcYgzC+zdscGSaABhOGDlUz1gARZ1TlfgccuMdA1jLXv7CSwLcvfFFXysXNAJT5nNPi3UwZ58tM+05KBk5gotKBqZA6l6ht0ZznITZCoB0A4dRA4qJPpAkL0U06CcymEGlSW3ORPAwibPHqb0fcGEDZjnFovF5RAAwjzCY4Rdf6BpEBsAW9bhT6G15kJDCzD6rcdAo749RECUOpXHFy5ZgDhxje+cffbv/3b5WyGSR/ta0PGdn/7oXEDQDzfHnFHPKe6XNgI9+ur5/mRfyAM4ZTKlG723GTU+w28XHDBBeX91A7Y5KqADSDMN7fb1fNLoAGE+WX2/9q77yjJqrJd4Of7Q0QlKIpKlhwlSc5IzkkJkiTnIDmDCLjIkmHIOeccBMnRASVIFBAQA4hiWOrSde/67Xvf+Q5F93RVT3V3VfV71po13VXn7PDsM/M8+007n+giBFIgtLZYAt6c6ih10OE/Bx10UMmx5/tHxo5mdnqjQ3oQNn8/68Ghhx5aOWFSsR5i4cUXXyw7es/WzzIJsrar//jjj0v9f2mI3BL14EbCQdCjmAH3yfd3T6NrgyggJIxBOW3WBhUFjzzyyHI/MVFPufOzMx2IBAKhr4OGWkNs5O5OgTBy2I+WnlMgjJaVHqXzTIHQ2sIrujN27NiSLcBKwJUgPZAQ4GJw4BXSVQ42CFu8wdlnn13+IPNLLrmkiAICwaE+EbdgJISB58UNOGHT746X5haoX+IXCBIWBAGPztCQJz6+mAH3H3bYYSW9UbAkodCYt69vde8dHkUgyHTo1isFQreuXPeMOwVC96xVjnQQCKRAaB40kf4CAlkRll122UKudvfqwiNnxKumhCN/VaUUDOji0xckeNJJJxV3gDY870RG7gMEH3n14cKQdeCUR4MS2qcAACAASURBVGVlBTI6DbKx9gGrgGOI5fkjc1YNV38iQdtjxowpaY2CJRVHimDLyJggPPTr+Optt922q9MCUyA0/27nnYNDIAXC4HDLp7oEgRQIzS8UAXDKKaeU0x132mmncpofEz4zvD+Imq+fhcEOXQlj2QvOupDauPPOO1e33HJLCRp0RoDYhcZgQb5/LgjHT7McKHbEwqD9RuKPGAR97rLLLtXMM8/8icOIwk3BaiG7wfNXXHFFEQWOnma9iPMEIvDSUdeOqBZoqf9uvlIgdPPqdcfYUyB0xzrlKAeJQAqE5oFDtHb2Dz/8cAn0E1yIZLkWpBtyKchIuPzyywv5C0J0jj1XARfE5ptvXn5WClmdAYGCLAORqSBA8Pbbby/fO1XT82Hi76vaIosAV4S4ArENnlEqOYIUWQNkOdx5552lMJJ7fMddoapgo0WCC8L9rBIsEsbczWczpEBo/t3OOweHQAqEweGWT3UJAikQml8oRC6egMtAkKDAROZ/2QuCDueZZ57yu8BBlQgJAP58hM8SgMAFCqpo6NAZpB2FilgJHn/88ULms8wySylWpI3G44kbrQhOKrz//vtLUOGqq65aLbLIIkWouAgIBZoefPDBUiWRaJFFwfXBCuIKywEydZ/+BVfutttuRWx0Ulnb5lfq/92ZAqFVxPL+VhFIgdAqYnl/VyGQAqH55UK4SAfZwg2BI1A/EwyIOQ7uicwE98dRyu7lFvCZeIE43AdJiyc466yzSltM+2Ibwvw/vsBD/YmJOPPMM0ssw6abblqESlgRon99cFNo033GEtYB4kRsxIUXXljSHPfYY49qoYUWKsB0c2niFAjNv9t55+AQSIEwONzyqS5BIAVC6wtVr24YT9fPUogKhUGwfRE8Uo7AwIg7EOPA9aCmAmL2p79CSY2jZqkQu0AssCSwZIiBYCmIvoLso8wzwSDWQalmVg/9snI4ApqAaOYkyhhHJ1ZcTIHQ+rudT7SGQAqE1vDKu7sMgRQII7NgiB+BqWVw7rnnlgBHtQzURWiMN2iGfFkpZFmEm0B2BBeGPwIUVW2MQ6OsufRMwkSMhHEQFawGEcw4Mqi0t9cUCO3FM1v7NAIpEPKt6GkEUiCMzPLanSNoAYZiEhyzLUbAjj9M/60cKUxwWMuoniigUtChlEVxCojfd+EmQZ6CFtVCELAYNRQi7bEZUTIyyDXfawqE5rHKOweHQAqEweGWT3UJAikQhm+hkHiY+6U/SnlUeElp5hVWWOET4mAwpvsIOIzCS1wJr7/+erFSiImop1SyJki9nHLKKUu/4e4Il0YKhOF7L7Kn7kUgBUL3rl2OvAkEUiA0AVIbb0He3AnXXHNNKVjEpbD66qt/KmOg2diDvoamjyifHEc+2003ZiREhkQ9UyKEQgqENi56NtWzCKRA6NmlzYlBIASCKn/K8Cr/282pbUO1qkzvE1oTAGnb1TvL4dJLL61WXHHFcliT+IBmCTncBEHk/c03rBXajeOcw3pRP5660aXQSwIB1gcffHDJzNhvv/1Kimc3Z2UM1bud7Q4egRQIg8cun+xwBCJQ7qqrrqpOPPHEYnKeaaaZimhgdq4HyzVLYB0+5ZaHF+Z6LgB1DwaqSzAQYauZoNSy4EHllmeYYYamxYF1UbJZMSWplvWrL8EQnzUKm3oGRSNhDiQ8WgZwhB6ILBA1ImRlHH744Z9I/xyhYWW3PYZACoQeW9Cczv8iELtMgWzK69ppsR4IZHOlQKjG1TBYaaWVSvGi2HEHin1VOOzrHZNloGiRjAVljAUlSkMMImvmvSQQVHG87bbbSvXGZgVCo6jxXN0F0dh3L4gE62Le6k6oemntVJAcrUK3mfcr72kdgRQIrWOWT3QJAkgL4fmPlDk2jv5tFAbNkmCXTLulYcZBSoFPfxaE8REPwpVR4BwHtQ522GGHkjkQYqxZl049CyEOgqqTfX9E3yhqxmdBqB/93BJQHXqzdzxEGJxTIHToQnXpsFIgdOnC5bAHRqBxp5j/efaNWQT99SWUBkpFZI2RZnjzzTeXI5SVMI60woFX6NN3RPxA+tIHRq+xQFS874ndwNjlHc0hkAKhOZzyrkSg5xFoNYAvxIGgxKeeeqraeOONS4VDBNXX6Yw9D+AwT7BRAPdSCucwQ5nd9YNACoR8NRKBRKBlBKJgkdiOl19+uVpiiSVKGWWiIU3dLcOZDyQCHYlACoSOXJYcVCLQeQjE2QV2qg5v4lJwiNKSSy5Z7bTTTqWaYQSGTmjKZOfNPkeUCIw+BFIgjL41zxknAi0jQBDIAhEp73IAksOT5p133mr55ZcvRzjnlQgkAr2FQAqE3lrPnE0i0HYEVCl85plnqiuvvLIUmpp88smrMWPGVDPOOGO12WablWOhxR2k1aDt0GeDicCIIpACYUThz84Tgc5FIILeFC26/PLLqwsuuKBUR5xkkklKnYJ6UGJmiHTuOubIEoHBIpACYbDI5XOJQI8jEOmPqiMqU61qHyuBExK33377aumlly7Wgyh33ONw5PQSgVGHQAqEUbfkOeFEoDkEWBA++OCDcmTzaaedVhEKXAlTTDFFteqqq1brrbdeCVCcbLLJPlWBsbke8q5EIBHoZARSIHTy6uTYEoERREB1xbFjx1Ynn3xydd9995Uqia6JJ564WmSRRaq11167iASBi62UVB7BKWXXiUAi0AICKRBaACtvTQRGEwLK+J5xxhkl9uCVV14p5xsIUNxwww3LHxUTJ5100iIYBqq4OJpwy7kmAr2CQAqEXlnJnEci0EYEiAEllHfeeediPfjnP/9ZTTPNNCWlcbvttitxCHnYVRsBz6YSgQ5EIAVCBy5KDikRGGkEpDY++uij1e67716KIok1EJToWGinNSql7IpTBUd6vNl/IpAItB+BFAjtxzRbTAS6HoGPP/64Ovroo6vXXnutiAPpjbPNNtunzliopzdmqmPXL3tOIBH4BAIpEPKFSAQSgU8h8OGHH1Y33nhjiTOYddZZqy9+8YvljIXxnZCZAiFfpESgtxBIgdBb65mzSQTagoCYA64FRZHUPogjhPMI7bbAm40kAl2BQAqErlimHGQikAgkAolAIjC8CKRAGF68s7dEIBFIBBKBRKArEEiB0BXLlINMBBKBRCARSASGF4EUCMOLd/aWCCQCiUAikAh0BQIpELpimXKQiUAikAgkAonA8CKQAmF48c7eEoFEIBFIBBKBrkAgBUJXLFMOMhFIBBKBRCARGF4EUiAML97ZWyKQCCQCiUAi0BUIpEDoimXKQSYCiUAikAgkAsOLQAqE4cU7e0sESrnigcoSN3NPQpkIJAKJwFAikAJhKNHNtkc1Ao5MdilTrGzxX/7yl+rf//539d///rd8RiQoY0wMTDzxxNUUU0zxiZLGA4mIUQ1uTj4RSASGHIEUCEMOcXYwWhEgBt57773qnXfeKX9/9NFHRRQ4SjnONvA7IfGFL3yhmn766atpp522mmqqqarJJptsQCvDaMU1550IJALDg0AKhOHBOXsZZQiwGLz//vvVT3/60+rRRx8tloKvf/3r5Q9R8LWvfa1YEv74xz9Wf/7zn6s333yzCIg55pijWm211ap55523mnzyyVMkjLL3JqebCHQSAikQOmk1cixdhwD3gD/hNnAK4tixY6v77ruv+t3vfldNPfXU1eKLL17NN9981Wc+85lC+P/5z3/GzdMRyiwIH3/8cfWHP/yhevDBB4tY+OxnP1stscQS1corr1yOWo4rTlNM90PXvSo54ESg6xBIgdB1S5YD7jQEEHxYAx555JHqlltuqeaZZ55qvfXWK+TOeuB7V8QeIHg/e7Z+hLLfCYtf/OIXRWTMOeec1TrrrFPNOuusFTHhqt+fQqHT3oYcTyLQOwikQOidtcyZjBAC//rXv8bt/u+6665qmWWWqVZcccXiTuBqCItBiIMYJnL3B+ETBv64J6wKRMIFF1xQzTXXXNX3vve9Ep8gfoF1IYRBCoQRWvTsNhEYBQikQBgFi5xTHFoE/vSnP5Xd/mOPPVYsB8suu2w1ySSTlMyE2O3Xd/31n8dnERDk+Pzzz5e2Z5xxxmrdddetppxyynGWBM+mQBjatc3WE4HRjEAKhNG8+jn3tiDw8ssvV9dee23Z/XMrCEAM60B0ECmPjYKgGZeBuITbb7+92mijjaqll166+tznPjdu3CkQ2rKE2UgikAj0gUAKhHwtEoEJQODvf/97ddttt1UvvfRSteaaa1bf+MY3iquA9aAuCgYjEEJkCGC88soryyjXX3/9Eo+QLoYJWLR8NBFIBJpCIAVCUzDlTYnApxEQe/DGG29UF154YbXggguWjIOIKYg6B/FUo4uh0c3QH74hBGQ4XHbZZdWiiy5arbHGGsV1EUGLuTaJQCKQCAwFAikQhgLVbLPnEUDQH3zwQXXeeecVskbaghKDtBtdDHWhML54hDpwdSuBeIR77723FF0SsDjNNNOUtMm8uheBSJGtu4nSZdS969mLI0+B0IurmnMacgT85/7iiy9WBx54YLXZZpuVzIVGt0J///HX3Q0G2p81IZ73PYHw+uuvF3eGIkpcDZ///OcnaJ7NnvfQmFbZX5plszUazL8ZAdVohZmQyTZjsQk8houkpb7qs57dMlx9TwiW+ezoQSAFwuhZ65xpGxHgXrjnnnuqG264odpxxx1LloEdvZTGodgRIlUWi7vvvrt69dVXq6OPPrr60pe+NKgZacv4VXpk9SBs+iNj1R2ViRZr8eUvf7mabrrpqrfffruSuaEc9CyzzFKsJtI5X3nllWqiiSYqQZrGpv6Dq46HeIqnn366PLPYYouVlE1XiCYWkmeeeabUj+C20U6zQqY/MP7xj3+UbBBrY3whuPxMeKlYiax/+ctflj7nnnvuIc0O0RdcBZ/qm+D76le/Oqi1zIcSgaFEIAXCUKKbbfcsAgjt4osvrt56661qk002KaSIbBp3xv3tlFsBph6s+OSTTxYrwoknnlhSHgdzqaWADGVGbL/99oWc+oqZQKRiH+64447qhRdeKLUdpHBK5zz//PPLz6wnLBlI+M477yzEt8oqqxQh0RcWSktfffXVRUxts802pd+oA+EzVhJuG+dRyAjRTl+WiWZ32taJoIEZt4w1giGxs9RSS5WqldHW5ZdfXuaz5ZZbDgbWpp8hVN59991q//33LwJr0003LbUu8koEOg2BFAidtiI5no5HIAjt7LPPLjtSZyfYTSPJvoohNe6iBzPB2PXapSPQ4447ruz+G/trpm0kKStizJgx1SGHHFJ9+9vfLoRdFwmxa3cC5U033VRdf/311YYbbljEEIGwxx57lOcOOOCAsstnkdCeQ6dkcxBMjfNGxNpD0PrjlrGbRuCeU5b697//fYm1IBDmn3/+ssN29YfrQPMlhlgPCKJvfetbxfJxwgknFCvBD37wg+Im+vDDD4sFg1WGYNpll12GzIIQcQe//e1vS18sTyxQ3/zmNweaSn6fCAw7AikQhh3y7LAXEEA8BIL/4BdaaKFiKkeSgyWygTCJSovcC4j4mGOOKSTKVN/MbjpM+AiZy0BGROyqTz311NJWo0AwJvfb1R9//PHl+zPOOKMIISRKaPz4xz+uZphhhuqvf/1r9aMf/ajsvpWHNi5kj3zVbUD+XBnaIxK4HxSTevzxx8uBVrPNNlvJAiG0fM+lwULibAvuC1YKLhZCIupMaMN9Pjc/9/s+MkmMP6wgPtefmhWHH354ORSLOHJxe6haudtuu5U/G2+88bhzNDynDfeYk3laay4QczFHooNYY4lxj3u5b+Dzla98ZdwBXXHmhu8c0AUv2O20007FzZBXItBpCKRA6LQVyfF0BQLMxHbyCy+8cCE/O+I4sCkm0AxxNztZJKX91157rfSLXPTbbKpjlHFGcOIYkBjiPeyww8rZEUsuueQnhhI7XR8ibC6FW2+9tQgEpnoCwa6cUGEJcH7EddddV+25554Fi6uuuqr6zW9+UwjyV7/6VTnKeq211iqlolkvkDzT+jnnnFMsBnbQzpwwPhYLB1WxIDjb4rnnnisijDuAuGG9CJM8t4a1INTMY+aZZy5kKx20ngXiZ/hxlRx11FFFIBAKcQ+ryHbbbVetvvrq1UwzzVTiA5ZffvkyZjUuuJOMkQuFOOBG4S6JGA3CQ3aJZx966KEiAIgXFp+tt966jImQeeCBB8p4CScijfWJq4VFox2Wpmbfp7wvEWgGgRQIzaCU9yQCDQiwFiBNRGPHjBQjOn+oBIL2WRD0e+SRR7YkEGI3zZyvdDOSt+tFynzhO+ywwyfERj3q31w9c9JJJ1Xf/e53i5ggFH7+859XG2ywQSkBjfCQIrcDIjzzzDMLkRIPYg7smnffffdq0kknrc4999yy2957772L6GDJELAo5oC1guhQMXK55ZYrR2X73i6bhUC/xAM3BnJ29gWyJpZklPDp+26RRRYZR7hhGWkUCEccccS4e/Sz1VZbFUGgYiWB8Otf/7rMz/P77rtvGQ9hYg7WmygwFhaViy66qJza6V0gaLwXnmNl8hycrd2zzz5brbDCCkU87LPPPtVKK61UhJLgyBQI+d9MpyGQAqHTViTH0xUI2Akz9TNz23UygQ+lQACK9u3a7WaPPfbYsguPTIGBQEP4SOnhhx8uZn07Vrt7lgi7b+0h4HpqZV3o2EWffPLJhQyZ4O3k+e8F2yE8rgFEqI2//e1vRTwgSGZ9AkFBKYTIkoA0me7322+/QpgsCquuumr5w9rAbaEi5Xe+853yPREh1sGR2dwCBIs0T1YQ7gk7f6Z67bM02JUTDK66y4dAEI/AgoDICYSItbDrFxOw8847FwuF31lBzA0+4hXWXnvt6vvf/34RQ0QLiwZB4bIuRA+iJ5C4VcQZEA5Ei/gN1gPjNHZuCZYD89QnC8OEZmsM9A7k94lAqwikQGgVsbw/Efj/vm3ENnbs2EIaduSNRze3EyhExyVgJy/7AMnaoTebJYEc7WClZiJ55Zr50pEYImRFEAMQR1DXd7P6YAFAij/5yU+KFcGuXUoiqwJxhCgF29lZsyTYkUcq5FNPPVV229wPXAAhrJj4n3jiiSIgkDqTPgvCD3/4w0LKdu8EApcIMmfiJxQIBN/pl1uD2PHdzTffXHbkyJYACatJiB7r0+hiiDUjCFhRdt111xKHwLVhfVlAWAOMPYI0CQQZD0QSq0XESog5IBxZEIgxAZbmRsgppGXt4E5gaYNVxAmd/iZ+mq0j0c73KttKBMaHQAqEfD8SgUEg4D9zvnNllv0HP/vss5cgPAQxFBeSQ8hM6ggYMUVAXjNWBORlJ85vLprfTp4Y8CyBY+eLGEN01AWCn4kT8Q9bbLFF2aVzcYgXsKNH/twF2iFEmOZlCsAEYYsNYLWww0e23AT6Ff/g8yuuuKK4JogOu3I7/LpAIEzci/gPPfTQIsQIBNkTN954YxEl7oe/eUhhlF3SeEWtg4hBIERCINjd77XXXsUaQSQQOI0CgesBuRNY6l+wXsAM6YsrsPbiLlhpuGEIhLPOOmucQDAPlgV9EDniOGAkRiFcDI24D8W7lG0mAs0ikAKhWaTyvkSgAQE7coTFvyxYcbCFiwYCNnbAdtMsAEjXztbnghSbqTjIFXDaaacVkzZyZQ6PQEQEJcgQcal1gNjq5u7IgBCxf9BBBxXCM2+igxDgfrDDVhcBCdtBExBqGHA72I0TAmIQ+OkFWRII2giXiTa5auy8Tz/99CJgjJOFhrA5+OCDi5WAIEHE3A/aYMKfYoopiljSH3O+v2VFNJrskbixcKsQKlJFCQljJhDEGWy++ebFmuL3EAjaIh6MRyCivqRqwhP24hK0Q3gRUqwaCN84WGcIF+0SD4QFjLkaIt1S5gfs+iosNdC7kd8nAkOJQAqEoUQ32+5pBJAqEzJSYGLn029mN98KKCEOkJvdMpLmsyZGfNdsf+IFEDMyY84Pl4g2EBXfPMsAsRPWhRhnmL5ZDK655prSt/lKQbSL5qYgWoKUuSMEUkod5FKwoxdbIPBQUJ+dtMuOXP+XXHJJESja5DbgKiAYiAtZAOIZ3CtD4IILLigxDuIVCBcBjzCxBoiYQFAAiZ8fadczSVheCA5HcwvQJIyQuCwNwoHbQMwBEcAtQiQssMACJb6ClUPcgjoQ5sN9EiJC38QBF4SLCBAfwfUBC5YfuBJll156aSk+RexwUXhnCCMCM87WaGf2SyvvWt6bCDQikAIh34lEYJAI2O3aASME/8Ejpr5M24Nsvjxmh0ocIBnFipCOnax+mrEcRN8ICzEhYIQneDCIX9tI187Yd3U3Q33sxoHwtMHKgMiQLpN77OLdTziwWAjWc5929e8e4gIh27X7XByENl2+YxExTqZ44zAuz/Lz69e9njV/AgRRR7VFFg1CRzsCChG5K+oiMOtrj9BxRZlpn+vDeD3rjzm5L2IZxAwYqzaNTV/mySrgefMUGEmwGSPRgPz152fiIGo5mL92AwO4aNOzGag4If9a8tl2I5ACod2IZns9j0CY5v2NIO2qkaxdKxN+O644xMffiIqlwo5ZgKBdeSviwHjqByTVUxijPkJ8Fr/3F/zoPkIhLBdBaI33R2Enf0cKaOAWsQ++05bvPR9jrGeDRNXKIHnf6ZuIYFFhYRDgp9CTtUC0Av+Y+CODoXHMMTb9xvijhkUEaUY/hEC4cdxTz/Jwj88Ih5h/9EUUSIes15MIsWf8nqsXuYpxpEBox7+ebKNdCKRAaBeS2c6oQiAI1X/0fPB294gCgdsRuupE3Aw47tceAgkBgKCYuwVE8rtzA9j9D9UVhDa+7Ij6vOqE1oxpvPHZZp8PgRAnIIpD4LYQTIiMWT749QUM2q3X4yjqJB241QVYvaBSfB9xF30RduO6NmJVF0KN6xTP9vVMM/gN1bpnu4lAXwikQMj3IhEYJAJBHkzM0vW4GpinETmTuB1iqyKhHnjIfM7/LsBPUB2/u9iBob6a3cX2RZTNjK1RJMQz/RFk/fMQUWFZiIqF1oDLgOk+LBJ1MdDXz/V2G/sYzLrV596IYQic+j2NfaZAaObtyXuGE4EUCMOJdvbVUwjUSUQ8gnK9gvYQlKA9AYGt/KfPauAPsuOnVs2PT13gnbgDooN1odnAxG4Au45hs1iFSIggzXB51N0l/blgmu2v3QKhG9Yix5gINCKQAiHfiURgAhEIMkFUzN7S6Ji8FfXhh45UOi4ILoMIRtNt5OGHOIgjj4kDtfql18VpkX2Zwidw6Pl4IpAIJAL9IpACIV+ORKBNCBAK/OEi+KXSKSDEJeDgICmARENkOYSoIAji8B5FjLgUxDQQEYryeNYzdatBszvtNk0rm0kEEoFRikAKhFG68DntoUFAEJ0AOqluYgdkNzhUSOCitDcBdERBmMAJBSl2cuIJBGJAoB1BEdUZjTQFwtCsV7aaCCQC/SOQAiHfjkSgjQjUg9PEEUhRZFFQplhAnd+5GeIiJhT4kUMvVU/JYMF20vUiyJHFoO5T7y+4ro3TyKYSgUQgEahSIORLkAgMEQKRN08QCDwkBuJAH9+5ok6AtDyiIKwFjRHuKRCGaJGy2UQgEegXgRQI+XIkAsOAQBTnabQGRNf1XP26GKjXJYh704IwDAuWXSQCiUBaEPIdSATajUC9EqC2WQt8JtZAbQNlfF2EgLx9tRNkO0Qt/qgwWK+j0J8oyIDFdq9etpcIJALjNiP/p9WE38QuEUgE+kWAGwHRq9OP6MUdPP300+XcAMcg+1zMQYiASHMUe6BKokN8xCNE+d6wJqRAyJcuEUgEhhuBdDEMN+LZX88iEAV8kL4TBh31qy6CcwMc8uOEQgcQRRYDC4F7HejjNEOnIvrdoU8rr7xyOdfBAT9xpgDgshZCz74+ObFEoOMQSIHQcUuSA+pWBLgS4mwGFRXVNCACnJ0gzVGKI8tAxBWofxCllWU8OBmQUOBucLTx4osvXo4R9nuIA+mO6Vbo1jckx50IdBcCKRC6a71ytB2IQGQrqGPg+OcrrriiZCuoZyC+gEuh8ZCeOAzIdOI7n4lP4JbwR3vLLrtstfzyy5e2XPUTADsQihxSIpAI9BACKRB6aDFzKiODAIJH6HfeeWd13XXXlZME55xzzmI5aDwTIHb/EchYDwGql132+RtvvFEEx4orrlhttdVWpdBSL53DMDKrlb0mAolAswikQGgWqbwvEegHAQc1PfTQQ9UZZ5xRshLED7jUPgiXQF8WA5YHbgZuh7AkEAasBISFn5VrfvbZZ6tNN920HCVNfOSVCCQCicBwIJACYThQzj56EoGIJXjkkUeK5YAgmHfeefvd5beaMBSi4s0336zefvvtcoy0I59TJPTk65STSgQ6DoEUCB23JDmgbkFAnIFshYsvvrh65ZVXqkUWWWRcLYPGObQqDjwf2QsOgFKqmQDZcsstqyWXXDIDFbvlJclxJgJdjEAKhC5evBz6yCIgoFCmwrnnnlvSFx2wxD3Q19WqQBCrIB2SKPCsvqRMLrfccsXd0IuxCPVzLEZ2ZbP3RCARgEAKhHwPEoFBICB+QGDiNddcU+IPFDiacsopS5pjuwQCkRDCQoEl8QgCFffee+8SAEkkNAZBNjOVIOJOI+Rw2Sg2ZV7DkbERGIgFcfUn8JrBtdl7vCOxrpm22ixqed9IIJACYSRQzz67GoFIa3z99derww47rJD2LLPMUg5b6s9S0KoFoaj3//mfcTh5Xp0ExZQ222yzaplllhkX3DgYMMU3mEc7Sbh+nkSMqdXCTnXRUk8NHcwc45mBsI8+h6O+BNyJn8hiiT47TaxNCN75bO8gkAKhd9YyZzJMCETw4F133VUdffTR1SqrrFJEQiOpNxJ8q8Orkyt3g7oIYhEcB73XXnsVt8ZgLAjGYcfsbAh1GtpFjGIyWDommmii4h6pj3+grW0gXQAADglJREFUPhBk1IFgKTG+mWeeuRSXmpArqlqGSybOxYjxqVTpCO733nuvCLyoXjkhfY7v2bBUvPXWW6WC5jzzzDPOXTQQRkM1pmw3EegPgRQI+W4kAoNAAPGcffbZ1T333FMtvfTS1WSTTVaOc27nf/J1gkVwyFc2g6yG0047rZRvrhNxs9MQ1xAFnY488shCjHEwlD7ru1v3hpUBuY2vP/PX3korrVQttthi5d5oq1HI1A+0Qtr6ISxYSeBqngcccEC1wAILFLFgXEHynvVz4y68Pn9tukeZ64MOOqiab775SjtSRvWx8cYblwBTokvsyDPPPFPECPfNVFNNVSxB0U+9XW1EaqoxRT91t42ffR6Hb0WFTb/7zlyPOeaYElNy4YUXlkqZaUFo9u3N+4YTgRQIw4l29tUzCCCPk046qXr11VdLaqNaBnbQ7TyKubEtxPT+++8Xcj/nnHMKodXPaWgWXAR1+eWXFyLeddddqw033LCMPw6Sqpu96+b5vqwVvjdvf998883VscceW22yySbVjjvuWOIk6uZ740eWUW5aP4Ivn3rqqSIOlJZWUwKpuw9Rq0JZP7AqDsOqE3i0S8g0+vSVrr7yyiurjTbaqLSLkB2cddZZZxVLzBNPPFEpc600tnHtt99+pd8g90ZMI8YkhFQjsfvdeI3JnNwfLgVtRYyDd+fee+8tMSwEQrgeml3DvC8RGA4EUiAMB8rZR08hEL527gUpiNNNN135jx951a8JtSY0Pq99JIdQzzvvvEJkrQa5ISIWiOuvv74EVxr36aefXk0zzTSF1Hz/zjvvlF0uF4adPIIzR4KkkThjt0y4KBT10ksvVU6m3H///cvhVMYXIuODDz4opnyCgksGQb/44otlLKwha6yxRvlbW+Y+7bTTFvM/Ane//o3PqZhqQRAP8HeEtvv055m6APG5WBEiTmXK888/v1gLxowZU8ZJQPj+kksuKVhsvfXWRShp33kYCN49sebcMuJN3Gucxmas8DH2OHjLuMzd587h8Lxx+gNnAo01IwRCWhB66r+InplMCoSeWcqcyHAhECWRmYmRNmKyWxwqF4N56TMEwqOPPlqIDhk2+voHwgCh3X777eNM+rvssks5O2L11VcvxCUI0imULCOrrbZa+Zu/3KFRG2ywQSHBuJCaZxDhgw8+WEz3fvfzzjvvXC244ILjdtHafeyxxwqph1DgPkDAl156aSHjNddcs7R1yy23FMvCDjvsUAQKAbHOOuuUWA+fswhom6h54YUXSh/cBcQGghe7EFaHIHZ/m8tFF100zoIwwwwzFOL2+YknnlhiMuBAQGlviy22KOQOj3fffbech2GO6667bmmfCLAmUl3FMrBSEB8E1vTTT18999xzRQRtt912pW3C7qOPPirCTmos8ZICYaA3Nr8fSQRSIIwk+tl3VyIQ5m3mdDtCgW1hTm7nhOoWhAius5tVuZFAQJB2y824NcKPj6gJBASGvBCiTAwuASKEhYL5++mnny6fmddNN91UYiz23XffsiOu12CIctFIe4455ijCw9hUfGQRsBPXLlHzs5/9rFphhRUKRHbQs88+e4lV4C7x8zbbbFOImCWCiDjkkEMKoZ566qnlPIptt9227ObvuOOOYhGwixfQuPDCC1cffvhhdfDBB5cYCDEhjZYO8ycEjJPl5IILLihCwqXI1XHHHVcsAptvvnkhfaKAQJh//vmLgHn88ceLYPKdsRIQ1p1g0iYrBPcE3Lwfiy66aHXjjTeWcbFW+P6BBx4ozwpMNFb9XX311QXbtCC0819OttUuBFIgtAvJbGdUIeA/dKRit+k//OESCIjJjhXBRTBdM26NyLwQVMm0bcwEwp577llIkDVEzIAYAC4HhH7KKaeUHT8yf/7554vbYK655vqUQLCLR5JiGRD7tddeW4QBsp177rmLgLFD15YiT8ibKwLZIkfuEmNQJZKAEYApzuL4448vbg7mf66JffbZZ9xunXuAUPK5CpbcArfeemvZ3RMIiLtRYBEI5uI5+LFa1C0Ifj7wwAOLoCFOBFsSOspoP/nkk+UzVgQC5e677y4xEywMLBfwIShYFiJw8bbbbituDXEP999/fwlK3H333cu7QvSwtIRAGFX/eHKyXYNACoSuWaocaCchgETsDJGF45gjEj3S2Nox1sYYBCRIkNjlI+/wyUdf47MkIL+IPUBgTpt0P3O43fKhhx5aiJUF4Mwzzyzm8RNOOKGIAd8TASL8CYv6bpeZHBFqm3iAi100gYHwHTBlp3/UUUcVYuQ24JIxlwhIFDAoy4B7gDuDBQGxivFAyNriGmB9IDIQM8uJEtdcDoQJQWJcRI6sDCKk7maAkRRRZI3srR0LgHvs7k8++eQyV3O0hqwqqlZyexAIRJWsCs9EcSwWj7DiiKsgFgRAsmro3zORcXLDDTcUMQNnYyfCiIxwMUxovEo73rdsIxFoRCAFQr4TicAgEECy/oP/4Q9/WMz0SK+vQMVBND3ukUbSYG5HOHb+iMzuO6LkBxIJ7nMcNeJdaqmliqk7Cj4hWOJA3IA+ETSSl+WAdO3gkR5rA4EQmRMC8lgzkKIYBQKBCPDs4YcfXj4LKwKyZ1LfaaedSnAg0zt3AWHFJcHSYAeORPVrnkcccUQRMkSMHTfrwvrrr1/wRsgEAnL3nEqWvjd+a0EoNF528J4hOAgFbhZrxrLArUJYmKO2WQsIBP0hd7EFrAsCFP3uj5gIbgeihWWH6PFOEAfOy/CzuAOCS1yFNrghuGnMx/c+N9YUCBPyLyWfHSoEUiAMFbLZbs8iEDtovms7QrvI2I22s1Qv0qinHPLPIyI5/Ag93Br9WQ7qn3vOrnnqqacuBCsrIAL4mO6RvfREZnfuAqRvl+siEBAxAWGnH/UH7Pbt7P2+1VZblWddAvkIAgGG+tp+++3Lrv2yyy4ru/SIfyBSiJ0QIoL8zInZnUAwLv25WDGkUQr4Y/pnOZCiqE2CRS0DVgTWHOPQTv0ihlhFzIUgMD5iJ9wdxuAZAoEVhcARH0EA6JfLA7kTMiwRhAbB4XduEHPi8hF3IHhRDALxxPKiLWW5WZvgL8CS1QWmghVZghwTnlci0GkIpEDotBXJ8XQ8AkzQSIl5XYQ9vz6yYWJu504wdur6Q1p83YSI2gVIyRUk7+fGvuviQmqgcdoBL7HEEoUMow5B+Mp9J/gP8dnJsyy4R4CeHb/yzvqPokqsEapJsmQgbUKJWBCHwOeOAGVa8OOL8hekqC0igZtAe+ZmXMSEYENt2HVrY6211hoXSKgtJvuFFlqojEE/XBT8+MSH7Aw7em2ySjRiwSpA0Llf7IPxCqp0EToCF31urAjemGQ5uEe/rBPcDXb/xAYBoy2izRkcBBv8ZGoQE6wk1gzugjUJIXEXrBfmaG1hCmPf9WXx6Ph/CDnAnkcgBULPL3FOcCgQQFD+IEnmaUQt0K6dAiHGjUwQlJ352muvXYgzLBURfNhXv/XPkJVdrM+iLLT2kZ0UvCh2hOyRtt+VYXYhX+SJeBFZZFREuWZtMs/bBUf6n+wOnxunNu3U7fqRInGiHZ8bv/5ZMIgI9yFo7WhPuy7jIQj8zqTvitLMnjU/8+prJx5ZJxH3YFzmoi/z8r3ntU94xfz1YZye871njD3SXN1vrOZo7Pr2GZz9rB/fm2e4n1Ru9J3ffac/z/bi6ZxD8e8u2xxeBFIgDC/e2VsPIYAokCfzt92kvH5k0K4rCgxpT/tM5wL/YufbaD1ASPVnGkVDENv4ghnrVof6PMKtEoWREDhSQ9zh6ojywkHIYQGJNkNUxTjrIiesMj5rrCoYIiisJI3tBbn2J87qOGkjghf1GfPymZ+jsFO9rXpJ5zq+YcGJ+cR3fVW3jDGE26hen2Ew1TDb9Y5lO4nA+BBIgZDvRyIwAQggDzt7qXnMzkzNdriNZN1MF/XsAM8HcQjSGzt2bDmgiWk+To0MQmqMVYi+xmfNqD8bRNdIpPF8nMHgvjgzIdL5YpxwGOh0yPo9Qbr9kWqdQNuxu472CJqwQEQ6YpyvEHELjSWlPeuexpMv63jFMyHC+hIajZjXBUYz70fekwgMNwIpEIYb8eyvpxAI87SANAFnzN18/HEOQX3n2MzEg7QQDjLmWhBUx7Ww3nrrjSuqU29rKNwajWNt3Dn3NRf3DHS6ZF8kOT5c6qKpGfz6u6eZflvtqy9MhmMtJgSHfDYRaAWBFAitoJX3JgL9IMDnLkBNKiGfuuh27obY/TZDsHXTOd+4aHnBelwXCgyJkh8o1mCoFmig8bdCjK0ScTvm1EyfzdxTH0sKhHasTLbRyQikQOjk1cmxdTwCSCKC9qIuvxQ4sQlS36SwSb8LAu3L9VAnGoF86gWoESBLQpqg1D0R8uGLr/usWyHmCQFzfAKh1TG0SsQTMu5Wnm11XCkQWkE37+1GBFIgdOOq5Zg7CoEgCn+LeOducHwwC4DLzl9GAB92ZAHUyYV/23PcEywGBAd/uFQ8ZxCInm+sCqjdVom5o0DLwSQCiUDHI5ACoeOXKAfYDQgE4SN3l3Q++fDSIOXZEwCEQKTJ1bMFIk6BCGBxUItABcEo4xvBf92AQ44xEUgEegeBFAi9s5Y5kw5AIFL0IqWPy0CJZDEKLAoK57AShKAgGIgCVQXjdEAWA5H22hgoha8DppxDSAQSgR5FIAVCjy5sTquzEJCRQCgQB34OCwKBIJhRwRyH+CjeU09b7KxZ5GgSgURgNCGQAmE0rXbOdcQQiBoAkf8fhXliQBFjkEVzRmyJsuNEIBFoQOD/AgoPreLkJpZOAAAAAElFTkSuQmCC;" vertex="1" parent="Wj9j_xX5FXf46OD89LJR-9">
          <mxGeometry x="60" y="100" width="520" height="284" as="geometry" />
        </mxCell>
        <mxCell id="Wj9j_xX5FXf46OD89LJR-21" value="进入owner，需要修改_owner为当前线程值，count++，出去则置为null，count--" style="text;html=1;align=center;verticalAlign=middle;resizable=0;points=[];autosize=1;" vertex="1" parent="Wj9j_xX5FXf46OD89LJR-9">
          <mxGeometry x="90" y="430" width="440" height="20" as="geometry" />
        </mxCell>
      </root>
    </mxGraphModel>
  </diagram>
  <diagram id="M3nsH0slmqzTPYF99GvY" name="Synchronized 锁机制的实现原理">
    <mxGraphModel dx="1209" dy="627" grid="1" gridSize="10" guides="1" tooltips="1" connect="1" arrows="1" fold="1" page="1" pageScale="1" pageWidth="827" pageHeight="1169" math="0" shadow="0">
      <root>
        <mxCell id="LCmzGK2refkczmDkeLQ6-0" />
        <mxCell id="LCmzGK2refkczmDkeLQ6-1" parent="LCmzGK2refkczmDkeLQ6-0" />
      </root>
    </mxGraphModel>
  </diagram>
</mxfile>
